<svg xmlns="http://www.w3.org/2000/svg" xmlns:xlink="http://www.w3.org/1999/xlink" xmlns:lucid="lucid" width="2463" height="1080"><g transform="translate(-157 -120)" lucid:page-tab-id="0_0"><path d="M1134 340a6 6 0 0 1 6 6v228a6 6 0 0 0 6 6h48a6 6 0 0 1 6 6v88a6 6 0 0 0 6 6h88a6 6 0 0 1 6 6v408a6 6 0 0 1-6 6H906a6 6 0 0 1-6-6V566a6 6 0 0 0-6-6H566a6 6 0 0 1-6-6V346a6 6 0 0 1 6-6z" fill-opacity="0"/><path d="M1140 365v19m0 9.5v19m0 9.5v19m0 9.5v19m0 9.5v19m0 9.5v19m0 9.5v19m0 9.5v9.5l.07.94.22.9.35.88.5.8.6.72.72.6.8.5.88.37.9.23.95.07h8m8 0h16m8 0h8l.94.07.9.22.88.35.8.5.72.6.6.72.5.8.37.88.23.9.07.95v9.78m0 9.78v19.55m0 9.8v19.54m0 9.78V674l.07.94.22.9.35.88.5.8.6.72.72.6.8.5.88.37.9.23.95.07h9.78m9.78 0h19.55m9.8 0h19.54m9.78 0h9.78l.94.07.9.22.88.35.8.5.72.6.6.72.5.8.37.88.23.9.07.95v9.7m0 9.73v19.43m0 9.7V754m0 9.7v19.44m0 9.72v19.43m0 9.7v19.43m0 9.7v19.44m0 9.72v19.4m0 9.73v19.43m0 9.7V958m0 9.7v19.44m0 9.72v19.43m0 9.7v19.43m0 9.7v19.44m0 9.72v9.7l-.07.94-.22.9-.35.88-.5.8-.6.72-.72.6-.8.5-.88.37-.9.23-.95.07h-9.95m-9.95 0h-19.9m-9.94 0h-19.9m-9.95 0h-19.9m-9.94 0h-19.9m-9.94 0h-19.9m-9.95 0h-19.9m-9.94 0h-19.9m-9.95 0h-19.9m-9.95 0h-19.9m-9.94 0h-19.9m-9.96 0h-19.9m-9.95 0h-19.9m-9.95 0H906l-.94-.07-.9-.22-.88-.35-.8-.5-.72-.6-.6-.72-.5-.8-.37-.88-.23-.9-.07-.95v-9.78m0-9.78v-19.55m0-9.8v-19.54m0-9.78v-19.56m0-9.78V966.9m0-9.8v-19.54m0-9.78v-19.56m0-9.78V878.9m0-9.8v-19.54m0-9.78v-19.56m0-9.78V790.9m0-9.8v-19.54m0-9.78v-19.56m0-9.78V702.9m0-9.8v-19.54m0-9.78v-19.56m0-9.78V614.9m0-9.8v-19.54m0-9.78V566l-.07-.94-.22-.9-.35-.88-.5-.8-.6-.72-.72-.6-.8-.5-.88-.37-.9-.23-.95-.07h-9.94m-9.94 0h-19.88m-9.94 0h-19.88m-9.93 0h-19.9m-9.93 0H764.8m-9.95 0h-19.88m-9.94 0h-19.88m-9.94 0h-19.87m-9.94 0H645.5m-9.94 0H615.7m-9.94 0h-19.88m-9.94 0H566l-.94-.07-.9-.22-.88-.35-.8-.5-.72-.6-.6-.72-.5-.8-.37-.88-.23-.9-.07-.95v-9.9m0-9.9v-19.82m0-9.9v-19.8m0-9.92v-19.8m0-9.9v-19.82m0-9.9V395.5m0-9.9v-19.8m0-9.92V346l.07-.94.22-.9.35-.88.5-.8.6-.72.72-.6.8-.5.88-.37.9-.23.95-.07h9.97m9.96 0h19.93m9.97 0h19.92m9.97 0h19.93m9.96 0h19.94m9.97 0h19.94m9.96 0h19.93m9.97 0h19.93m9.96 0h19.92m9.97 0H845m9.96 0h19.93m9.98 0h19.93m9.97 0h19.93m9.97 0h19.93m9.96 0h19.93m9.96 0h19.93m9.95 0h19.93m9.97 0h19.92m9.97 0h19.93m9.97 0h9.96l.94.07.9.22.88.35.8.5.72.6.6.72.5.8.37.88.23.9.07.95v9.5" stroke="#5f787b" stroke-width="2" fill="none"/><path d="M860 566a6 6 0 0 1 6-6h28a6 6 0 0 1 6 6v28a6 6 0 0 1-6 6h-28a6 6 0 0 1-6-6z" fill-opacity="0"/><path d="M884.67 560H894l.94.07.9.22.88.35.8.5.72.6.6.72.5.8.37.88.23.9.07.95v9.33m0 9.34V594l-.07.94-.22.9-.35.88-.5.8-.6.72-.72.6-.8.5-.88.37-.9.23-.95.07h-9.33m-9.34 0H866l-.94-.07-.9-.22-.88-.35-.8-.5-.72-.6-.6-.72-.5-.8-.37-.88-.23-.9-.07-.95v-9.33m0-9.34V566l.07-.94.22-.9.35-.88.5-.8.6-.72.72-.6.8-.5.88-.37.9-.23.95-.07h9.33" stroke="#5f787b" stroke-width="2" fill="none"/><use xlink:href="#a" transform="matrix(1,0,0,1,865,565) translate(0.43212890625 20.44921875)"/><path d="M900 386a6 6 0 0 1 6-6h188a6 6 0 0 1 6 6v128a6 6 0 0 1-6 6H906a6 6 0 0 1-6-6z" stroke="#5f787b" stroke-width="2" fill="#ecc88a"/><use xlink:href="#b" transform="matrix(1,0,0,1,905,385) translate(39.52473958333333 73.86458333333334)"/><path d="M845.16 440.66H802v-2h43.16zm35.34 0h-25.66v-2h25.66z" stroke="#c57037" stroke-width=".05" fill="#c57037"/><path d="M802.03 440.66H801v-2h1.03z" fill="#c57037"/><path d="M802.05 440.7h-1.07v-2.06h1.07zm-1.02-2v1.94h.97v-1.95z" stroke="#c57037" stroke-width=".05" fill="#c57037"/><path d="M895.76 439.66l-14.26 4.64v-9.28z" fill="#c57037"/><path d="M899 439.66l-18.5 6v-12zm-16.5 3.26l10.03-3.26-10.03-3.26z" stroke="#c57037" stroke-width=".05" fill="#c57037"/><use xlink:href="#c" transform="matrix(1,0,0,1,845.1572184846146,429.11343177992956) translate(0 16.69921875)"/><path d="M1060 726a6 6 0 0 1 6-6h188a6 6 0 0 1 6 6v128a6 6 0 0 1-6 6h-188a6 6 0 0 1-6-6z" fill="#ecc88a"/><path d="M1086.9 720h20.88m10.44 0h20.9m10.44 0h20.88m10.45 0h20.88m10.44 0h20.9m10.44 0H1254l.94.07.9.22.88.35.8.5.72.6.6.72.5.8.37.88.23.9.07.95v10.67m0 10.66v21.34m0 10.66v21.34m0 10.66v21.34m0 10.66V854l-.07.94-.22.9-.35.88-.5.8-.6.72-.72.6-.8.5-.88.37-.9.23-.95.07h-10.44m-10.45 0h-20.88m-10.44 0h-20.9m-10.44 0h-20.88m-10.45 0h-20.88m-10.44 0h-20.9m-10.44 0H1066l-.94-.07-.9-.22-.88-.35-.8-.5-.72-.6-.6-.72-.5-.8-.37-.88-.23-.9-.07-.95v-10.67m0-10.66v-21.34m0-10.66v-21.34m0-10.66v-21.34m0-10.66V726l.07-.94.22-.9.35-.88.5-.8.6-.72.72-.6.8-.5.88-.37.9-.23.95-.07h10.44" stroke="#5f787b" stroke-width="2" fill="none"/><use xlink:href="#d" transform="matrix(1,0,0,1,1065,725) translate(40.884114583333336 57.489583333333336)"/><use xlink:href="#e" transform="matrix(1,0,0,1,1065,725) translate(36.00781249999999 91.86458333333334)"/><path d="M1160 718v-10.22m0-10.22V677.1m0-10.2v-20.46m0-10.22V626l-.07-.94-.22-.9-.35-.88-.5-.8-.6-.72-.72-.6-.8-.5-.88-.37-.9-.23-.95-.07h-9.87m-9.86 0h-19.74m-9.86 0h-19.74m-9.86 0h-19.74m-9.86 0h-19.74m-9.86 0H1006l-.94-.07-.9-.22-.88-.35-.8-.5-.72-.6-.6-.72-.5-.8-.37-.88-.23-.9-.07-.95v-12.42m0-12.4v-24.84m0-12.42V539.5" stroke="#c57037" stroke-width="2" fill="none"/><path d="M1161 719h-2v-1.03h2z" stroke="#c57037" stroke-width=".05" fill="#c57037"/><path d="M1000 524.24l4.63 14.26h-9.26z" stroke="#c57037" stroke-width="2" fill="#fff"/><path d="M844.46 461.93H802v-2h42.46zm36.04 0h-24.96v-2h24.96z" stroke="#c57037" stroke-width=".05" fill="#c57037"/><path d="M802.03 461.93H801v-2h1.03z" fill="#c57037"/><path d="M802.05 461.96h-1.07v-2.05h1.07zm-1.02-2v1.95h.97v-1.94z" stroke="#c57037" stroke-width=".05" fill="#c57037"/><path d="M895.76 460.93l-14.26 4.64v-9.27z" fill="#c57037"/><path d="M899 460.93l-18.5 6v-12zm-16.5 3.26l10.03-3.27-10.03-3.26z" stroke="#c57037" stroke-width=".05" fill="#c57037"/><use xlink:href="#f" transform="matrix(1,0,0,1,844.4585046339913,450.3846338955807) translate(0 16.69921875)"/><path d="M1144.46 460.9H1102v-2h42.46zm36.04 0h-24.96v-2h24.96z" stroke="#c57037" stroke-width=".05" fill="#c57037"/><path d="M1102.03 460.9H1101v-2h1.03z" fill="#c57037"/><path d="M1102.05 460.92h-1.08v-2.05h1.08zm-1.02-2v1.95h.97v-1.95z" stroke="#c57037" stroke-width=".05" fill="#c57037"/><path d="M1195.76 459.9l-14.26 4.63v-9.27z" fill="#c57037"/><path d="M1199 459.9l-18.5 6V453.9zm-16.5 3.25l10.03-3.26-10.03-3.27z" stroke="#c57037" stroke-width=".05" fill="#c57037"/><use xlink:href="#f" transform="matrix(1,0,0,1,1144.458503822672,449.346145033708) translate(0 16.69921875)"/><path d="M1145.16 441.1H1102v-2h43.16zm35.34 0h-25.66v-2h25.66z" stroke="#c57037" stroke-width=".05" fill="#c57037"/><path d="M1102.03 441.1H1101v-2h1.03z" fill="#c57037"/><path d="M1102.05 441.12h-1.08v-2.05h1.08zm-1.02-2v1.95h.97v-1.95z" stroke="#c57037" stroke-width=".05" fill="#c57037"/><path d="M1195.76 440.1l-14.26 4.63v-9.27z" fill="#c57037"/><path d="M1199 440.1l-18.5 6v-12.02zm-16.5 3.25l10.03-3.26-10.03-3.27z" stroke="#c57037" stroke-width=".05" fill="#c57037"/><use xlink:href="#c" transform="matrix(1,0,0,1,1145.1572188223752,429.5457652998582) translate(0 16.69921875)"/><path d="M1745.16 437.93H1702v-2h43.16zm35.34 0h-25.66v-2h25.66z" stroke="#c57037" stroke-width=".05" fill="#c57037"/><path d="M1702.03 437.93H1701v-2h1.03z" fill="#c57037"/><path d="M1702.05 437.95h-1.08v-2.05h1.08zm-1.02-2v1.95h.97v-1.95z" stroke="#c57037" stroke-width=".05" fill="#c57037"/><path d="M1795.76 436.93l-14.26 4.63v-9.27z" fill="#c57037"/><path d="M1799 436.93l-18.5 6v-12zm-16.5 3.26l10.03-3.27-10.03-3.26z" stroke="#c57037" stroke-width=".05" fill="#c57037"/><use xlink:href="#c" transform="matrix(1,0,0,1,1745.1572163501442,426.38130960494635) translate(0 16.69921875)"/><path d="M1744.46 460.4H1702v-2h42.46zm36.04 0h-24.96v-2h24.96z" stroke="#c57037" stroke-width=".05" fill="#c57037"/><path d="M1702.03 460.4H1701v-2h1.03z" fill="#c57037"/><path d="M1702.05 460.43h-1.08v-2.05h1.08zm-1.02-2v1.95h.97v-1.95z" stroke="#c57037" stroke-width=".05" fill="#c57037"/><path d="M1795.76 459.4l-14.26 4.64v-9.27z" fill="#c57037"/><path d="M1799 459.4l-18.5 6.02V453.4zm-16.5 3.26l10.03-3.26-10.03-3.26z" stroke="#c57037" stroke-width=".05" fill="#c57037"/><use xlink:href="#f" transform="matrix(1,0,0,1,1744.4585034400693,448.8564137074034) translate(0 16.69921875)"/><path d="M1500 386a6 6 0 0 1 6-6h188a6 6 0 0 1 6 6v128a6 6 0 0 1-6 6h-188a6 6 0 0 1-6-6z" stroke="#5f787b" stroke-width="2" fill="#ecc88a"/><use xlink:href="#g" transform="matrix(1,0,0,1,1505,385) translate(33.71614583333333 73.86458333333334)"/><use xlink:href="#h" transform="matrix(1,0,0,1,1505,385) translate(71.90625 73.86458333333334)"/><use xlink:href="#i" transform="matrix(1,0,0,1,1505,385) translate(126.09895833333334 73.86458333333334)"/><path d="M2100 386a6 6 0 0 1 6-6h188a6 6 0 0 1 6 6v128a6 6 0 0 1-6 6h-188a6 6 0 0 1-6-6z" stroke="#5f787b" stroke-width="2" fill="#ecc88a"/><use xlink:href="#g" transform="matrix(1,0,0,1,2105,385) translate(33.71614583333333 73.86458333333334)"/><use xlink:href="#h" transform="matrix(1,0,0,1,2105,385) translate(71.90625 73.86458333333334)"/><use xlink:href="#j" transform="matrix(1,0,0,1,2105,385) translate(126.09895833333334 73.86458333333334)"/><path d="M2044.46 460.9H2002v-2h42.46zm36.04 0h-24.96v-2h24.96z" stroke="#c57037" stroke-width=".05" fill="#c57037"/><path d="M2002.03 460.9H2001v-2h1.03z" fill="#c57037"/><path d="M2002.05 460.92h-1.08v-2.05h1.08zm-1.02-2v1.95h.97v-1.95z" stroke="#c57037" stroke-width=".05" fill="#c57037"/><path d="M2095.76 459.9l-14.26 4.63v-9.27z" fill="#c57037"/><path d="M2099 459.9l-18.5 6V453.9zm-16.5 3.25l10.03-3.26-10.03-3.27z" stroke="#c57037" stroke-width=".05" fill="#c57037"/><use xlink:href="#f" transform="matrix(1,0,0,1,2044.458503822672,449.346145212743) translate(0 16.69921875)"/><path d="M2045.16 441.25H2002v-2h43.16zm35.34 0h-25.66v-2h25.66z" stroke="#c57037" stroke-width=".05" fill="#c57037"/><path d="M2002.03 441.25H2001v-2h1.03z" fill="#c57037"/><path d="M2002.05 441.28h-1.08v-2.05h1.08zm-1.02-2v1.95h.97v-1.95z" stroke="#c57037" stroke-width=".05" fill="#c57037"/><path d="M2095.76 440.25l-14.26 4.64v-9.28z" fill="#c57037"/><path d="M2099 440.25l-18.5 6v-12zm-16.5 3.26l10.03-3.25-10.03-3.26z" stroke="#c57037" stroke-width=".05" fill="#c57037"/><use xlink:href="#c" transform="matrix(1,0,0,1,2045.1572189469707,429.7052472487223) translate(0 16.69921875)"/><path d="M2345.16 438.52H2302v-2h43.16zm35.34 0h-25.66v-2h25.66z" stroke="#c57037" stroke-width=".05" fill="#c57037"/><path d="M2302.03 438.52H2301v-2h1.03z" fill="#c57037"/><path d="M2302.05 438.55h-1.08v-2.05h1.08zm-1.03-2v1.95h.98v-1.95z" stroke="#c57037" stroke-width=".05" fill="#c57037"/><path d="M2395.76 437.52l-14.26 4.64v-9.27z" fill="#c57037"/><path d="M2399 437.52l-18.5 6.02V431.5zm-16.5 3.26l10.03-3.25-10.03-3.26z" stroke="#c57037" stroke-width=".05" fill="#c57037"/><use xlink:href="#c" transform="matrix(1,0,0,1,2345.1572168163248,426.978020897543) translate(0 16.69921875)"/><path d="M2344.46 461.6H2302v-2h42.46zm36.04 0h-24.96v-2h24.96z" stroke="#c57037" stroke-width=".05" fill="#c57037"/><path d="M2302.03 461.6H2301v-2h1.03z" fill="#c57037"/><path d="M2302.05 461.62h-1.08v-2.05h1.08zm-1.03-2v1.95h.98v-1.95z" stroke="#c57037" stroke-width=".05" fill="#c57037"/><path d="M2395.76 460.6l-14.26 4.63v-9.27z" fill="#c57037"/><path d="M2399 460.6l-18.5 6V454.6zm-16.5 3.26l10.03-3.26-10.03-3.26z" stroke="#c57037" stroke-width=".05" fill="#c57037"/><use xlink:href="#f" transform="matrix(1,0,0,1,2344.458504372431,450.0498362925966) translate(0 16.69921875)"/><path d="M2400 386a6 6 0 0 1 6-6h188a6 6 0 0 1 6 6v128a6 6 0 0 1-6 6h-188a6 6 0 0 1-6-6z" stroke="#5f787b" stroke-width="2" fill="#ecc88a"/><use xlink:href="#k" transform="matrix(1,0,0,1,2405,385) translate(54.85546874999999 73.86458333333334)"/><path d="M1800 386a6 6 0 0 1 6-6h188a6 6 0 0 1 6 6v128a6 6 0 0 1-6 6h-188a6 6 0 0 1-6-6z" stroke="#5f787b" stroke-width="2" fill="#ecc88a"/><use xlink:href="#g" transform="matrix(1,0,0,1,1805,385) translate(10.376302083333314 73.48958333333334)"/><use xlink:href="#h" transform="matrix(1,0,0,1,1805,385) translate(48.566406249999986 73.48958333333334)"/><use xlink:href="#l" transform="matrix(1,0,0,1,1805,385) translate(102.75911458333333 73.48958333333334)"/><path d="M1200 386a6 6 0 0 1 6-6h188a6 6 0 0 1 6 6v128a6 6 0 0 1-6 6h-188a6 6 0 0 1-6-6z" stroke="#5f787b" stroke-width="2" fill="#ecc88a"/><use xlink:href="#m" transform="matrix(1,0,0,1,1205,385) translate(36.52864583333333 73.86458333333334)"/><use xlink:href="#n" transform="matrix(1,0,0,1,1205,385) translate(110.47395833333333 73.86458333333334)"/><path d="M1444.46 460.9H1402v-2h42.46zm36.04 0h-24.96v-2h24.96z" stroke="#c57037" stroke-width=".05" fill="#c57037"/><path d="M1402.03 460.9H1401v-2h1.03z" fill="#c57037"/><path d="M1402.05 460.93h-1.08v-2.06h1.08zm-1.02-2v1.94h.97v-1.94z" stroke="#c57037" stroke-width=".05" fill="#c57037"/><path d="M1495.76 459.9l-14.26 4.64v-9.28z" fill="#c57037"/><path d="M1499 459.9l-18.5 6v-12zm-16.5 3.26l10.03-3.26-10.03-3.26z" stroke="#c57037" stroke-width=".05" fill="#c57037"/><use xlink:href="#f" transform="matrix(1,0,0,1,1444.4585038282735,449.3533148669249) translate(0 16.69921875)"/><path d="M1445.16 441.1H1402v-2h43.16zm35.34 0h-25.66v-2h25.66z" stroke="#c57037" stroke-width=".05" fill="#c57037"/><path d="M1402.03 441.1H1401v-2h1.03z" fill="#c57037"/><path d="M1402.05 441.13h-1.08v-2.06h1.08zm-1.02-2v1.94h.97v-1.94z" stroke="#c57037" stroke-width=".05" fill="#c57037"/><path d="M1495.76 440.1l-14.26 4.63v-9.27z" fill="#c57037"/><path d="M1499 440.1l-18.5 6v-12zm-16.5 3.26l10.03-3.26-10.03-3.26z" stroke="#c57037" stroke-width=".05" fill="#c57037"/><use xlink:href="#c" transform="matrix(1,0,0,1,1445.1572188279765,429.55293513307515) translate(0 16.69921875)"/><path d="M600 386a6 6 0 0 1 6-6h188a6 6 0 0 1 6 6v128a6 6 0 0 1-6 6H606a6 6 0 0 1-6-6z" stroke="#5f787b" stroke-width="2" fill="#ecc88a"/><use xlink:href="#o" transform="matrix(1,0,0,1,605,385.00000017903517) translate(37.51953124999999 73.86458333333334)"/><path d="M852.27 1051H842v-2h10.27zm30.8 0h-20.54v-2h20.54zm30.8 0h-20.53v-2h20.53zm30.8 0h-20.53v-2h20.54zm30.8 0h-20.53v-2h20.54zm30.8 0h-20.52v-2h20.53zm30.82 0h-20.55v-2h20.54zm119.93-6.96l-.1 1.06-.24 1.06-.43 1.02-.58.94-.72.83-.84.72-.93.57-1 .42-1.08.26-1.05.08h-8.27v-2h8.2l.8-.07.77-.18.73-.3.67-.4.6-.52.5-.6.4-.66.3-.73.2-.76.06-.82v-10.93h2zm0-21.97h-2v-21.94h2zm0-32.9h-2v-21.94h2zm0-32.9h-2v-21.93h2zm0-32.9h-2v-21.94h2zm0-32.9h-2V879.5h2z" stroke="#c57037" stroke-width=".05" fill="#c57037"/><path d="M842.03 1051H841v-2h1.03z" fill="#c57037"/><path d="M842.05 1051.03h-1.07v-2.06h1.07zm-1.02-2v1.94h.97v-1.94z" stroke="#c57037" stroke-width=".05" fill="#c57037"/><path d="M1160.66 878.5h-9.27l4.63-14.26z" fill="#fff"/><path d="M1162.04 879.5h-12.02l6-18.5zm-9.27-2h6.52l-3.27-10.03z" stroke="#c57037" stroke-width=".05" fill="#c57037"/><use xlink:href="#p" transform="matrix(1,0,0,1,1044.2306276331838,1039.453125) translate(0 16.69921875)"/><use xlink:href="#q" transform="matrix(1,0,0,1,1044.2306276331838,1039.453125) translate(42.9697265625 16.69921875)"/><path d="M300 386a6 6 0 0 1 6-6h188a6 6 0 0 1 6 6v128a6 6 0 0 1-6 6H306a6 6 0 0 1-6-6z" fill="#ecc88a"/><path d="M326.9 380h20.88m10.44 0h20.9m10.44 0h20.88m10.45 0h20.88m10.44 0h20.9m10.44 0H494l.94.07.9.22.88.35.8.5.72.6.6.72.5.8.37.88.23.9.07.95v10.67m0 10.66v21.34m0 10.66v21.34m0 10.66v21.34m0 10.66V514l-.07.94-.22.9-.35.88-.5.8-.6.72-.72.6-.8.5-.88.37-.9.23-.95.07h-10.44m-10.45 0h-20.88m-10.44 0h-20.9m-10.44 0h-20.88m-10.45 0h-20.88m-10.44 0h-20.9m-10.44 0H306l-.94-.07-.9-.22-.88-.35-.8-.5-.72-.6-.6-.72-.5-.8-.37-.88-.23-.9-.07-.95v-10.67m0-10.66v-21.34m0-10.66v-21.34m0-10.66v-21.34m0-10.66V386l.07-.94.22-.9.35-.88.5-.8.6-.72.72-.6.8-.5.88-.37.9-.23.95-.07h10.44" stroke="#5f787b" stroke-width="2" fill="none"/><use xlink:href="#r" transform="matrix(1,0,0,1,305,384.99999999999994) translate(54.13281249999999 57.489583333333336)"/><use xlink:href="#s" transform="matrix(1,0,0,1,305,384.99999999999994) translate(25.82552083333333 91.86458333333334)"/><path d="M651 918h-2v-10.67h2zm0-21.33h-2v-21.34h2zm0-32h-2v-21.34h2zm0-32h-2v-21.34h2zm0-32h-2v-21.34h2zm0-32h-2v-21.34h2zm-5.9-49.6l1.06.27 1.02.42.94.57.83.72.72.83.57.94.42 1.02.26 1.06.08 1.06v10.7h-2v-10.62l-.07-.82-.18-.76-.3-.73-.4-.67-.52-.6-.6-.5-.66-.4-.73-.3-.76-.2-.82-.06h-9.8v-2h9.88zm-124.1-5.1l.07.8.18.77.3.73.4.67.52.6.6.5.66.4.73.3.76.2.82.06h9.8v2h-9.88l-1.06-.08-1.06-.26-1.02-.42-.94-.57-.83-.72-.72-.83-.57-.94-.42-1.02-.26-1.06-.08-1.06v-9.6h2zm0-19.08h-2v-19.12h2zm0-28.68h-2v-19.1h2zm0-28.66h-2v-19.12h2zm0-28.67h-2v-19.12h2zm0-28.68h-2v-19.1h2zm0-28.66h-2v-19.12h2zm0-28.67h-2v-19.12h2zm0-28.68h-2v-19.1h2zM535.08 451h-9.04l-.82.06-.76.2-.73.3-.67.4-.6.5-.5.6-.4.67-.3.73-.2.76-.06.82v9.52h-2v-9.6l.08-1.06.26-1.06.42-1.02.57-.94.72-.83.83-.72.94-.57 1.02-.42 1.06-.26 1.06-.08h9.12zm27.25 0h-18.16v-2h18.16zm18.17 0h-9.1v-2h9.1z" stroke="#c57037" stroke-width=".05" fill="#c57037"/><path d="M651 919h-2v-1.03h2z" fill="#c57037"/><path d="M651.02 919.02H649v-1.07H651zm-2-1.02v.98H651V918z" stroke="#c57037" stroke-width=".05" fill="#c57037"/><path d="M595.76 450l-14.26 4.63v-9.26z" fill="#fff"/><path d="M599 450l-18.5 6v-12zm-16.5 3.26l10.03-3.26-10.03-3.26z" stroke="#c57037" stroke-width=".05" fill="#c57037"/><use xlink:href="#t" transform="matrix(1,0,0,1,537.4950970518169,709.453125) translate(0 16.69921875)"/><use xlink:href="#u" transform="matrix(1,0,0,1,537.4950970518169,709.453125) translate(45.3955078125 16.69921875)"/><path d="M502 450h8m8 0h16m8 0h18.17m10.16 0h10.17" stroke="#c57037" stroke-width="2" fill="none"/><path d="M502.03 451H501v-2h1.03z" stroke="#c57037" stroke-width=".05" fill="#c57037"/><path d="M595.76 450l-14.26 4.63v-9.26z" stroke="#c57037" stroke-width="2" fill="#fff"/><path d="M853.33 1051H842v-2h11.33zm34 0h-22.66v-2h22.66zm34 0h-22.66v-2h22.66zm29.67-6.96l-.08 1.06-.26 1.06-.42 1.02-.57.94-.72.83-.83.72-.94.57-1.02.42-1.06.26-1.06.08h-11.37v-2h11.3l.8-.07.77-.18.73-.3.67-.4.6-.52.5-.6.4-.66.3-.73.2-.76.06-.82v-9.9h2zm0-19.94h-2v-19.9h2zm0-29.86h-2v-19.9h2zm0-29.86h-2v-19.9h2zm0-29.86h-2v-19.9h2zm0-29.85h-2v-19.9h2zm0-29.86h-2v-19.9h2zm0-29.85h-2v-19.4h2zm0-40.5h-2v-9.26h2zm0-19.2h-2v-19.92h2zm0-29.87h-2v-19.9h2zm0-29.86h-2v-19.9h2zm0-29.85h-2v-19.9h2zm0-29.86h-2v-19.9h2zm17.67-44.8h-12.63l-.82.07-.76.18-.73.3-.67.4-.6.52-.5.6-.4.66-.3.73-.2.76-.06.82v9.9h-2v-9.98l.08-1.06.26-1.06.42-1.02.57-.94.72-.83.83-.72.94-.57 1.02-.42 1.06-.26 1.06-.08h12.7zm32.33-6.96l-.08 1.06-.26 1.06-.42 1.02-.57.94-.72.83-.83.72-.94.57-1.02.42-1.06.26-1.06.08h-12.7v-2h12.62l.82-.07.76-.18.73-.3.67-.4.6-.52.5-.6.4-.66.3-.73.2-.76.06-.82v-12.38h2zm0-24.87h-2v-24.83h2zm0-37.25h-2V539.5h2z" stroke="#c57037" stroke-width=".05" fill="#c57037"/><path d="M842.03 1051H841v-2h1.03z" fill="#c57037"/><path d="M842.05 1051.03h-1.07v-2.06h1.07zm-1.02-2v1.94h.97v-1.94z" stroke="#c57037" stroke-width=".05" fill="#c57037"/><path d="M1004.63 538.5h-9.26l4.63-14.26z" fill="#fff"/><path d="M1006 539.5h-12l6-18.5zm-9.26-2h6.52l-3.26-10.03z" stroke="#c57037" stroke-width=".05" fill="#c57037"/><use xlink:href="#v" transform="matrix(1,0,0,1,918.2890625,804.4531000000001) translate(0 16.69921875)"/><path d="M1200 146a6 6 0 0 1 6-6h188a6 6 0 0 1 6 6v128a6 6 0 0 1-6 6h-188a6 6 0 0 1-6-6z" fill="#ecc88a"/><path d="M1226.9 140h20.88m10.44 0h20.9m10.44 0h20.88m10.45 0h20.88m10.44 0h20.9m10.44 0H1394l.94.07.9.22.88.35.8.5.72.6.6.72.5.8.37.88.23.9.07.95v10.67m0 10.66v21.34m0 10.66v21.34m0 10.66v21.34m0 10.66V274l-.07.94-.22.9-.35.88-.5.8-.6.72-.72.6-.8.5-.88.37-.9.23-.95.07h-10.44m-10.45 0h-20.88m-10.44 0h-20.9m-10.44 0h-20.88m-10.45 0h-20.88m-10.44 0h-20.9m-10.44 0H1206l-.94-.07-.9-.22-.88-.35-.8-.5-.72-.6-.6-.72-.5-.8-.37-.88-.23-.9-.07-.95v-10.67m0-10.66v-21.34m0-10.66v-21.34m0-10.66v-21.34m0-10.66V146l.07-.94.22-.9.35-.88.5-.8.6-.72.72-.6.8-.5.88-.37.9-.23.95-.07h10.44" stroke="#5f787b" stroke-width="2" fill="none"/><use xlink:href="#w" transform="matrix(1,0,0,1,1205,145) translate(2.127604166666657 73.86458333333334)"/><use xlink:href="#x" transform="matrix(1,0,0,1,1205,145) translate(63.23437499999999 73.86458333333334)"/><path d="M1300 282v7.97m0 7.96v15.94m0 7.96v8.03l-.02.03-.02.02-.02.02-.02.02-.03.02h-.04l-.03.02h-.09l-.03.02-.02.02-.02.02-.02.02-.02.03v.04l-.02.03V340.3m0 10.1v10.1" stroke="#c57037" stroke-width="2" fill="none"/><path d="M1301 282.03h-2V281h2z" stroke="#c57037" stroke-width=".05" fill="#c57037"/><path d="M1299.6 375.76l-4.63-14.26h9.27z" stroke="#c57037" stroke-width="2" fill="#fff"/><path d="M600 146a6 6 0 0 1 6-6h188a6 6 0 0 1 6 6v128a6 6 0 0 1-6 6H606a6 6 0 0 1-6-6z" fill="#ecc88a"/><path d="M626.9 140h20.88m10.44 0h20.9m10.44 0h20.88m10.45 0h20.88m10.44 0h20.9m10.44 0H794l.94.07.9.22.88.35.8.5.72.6.6.72.5.8.37.88.23.9.07.95v10.67m0 10.66v21.34m0 10.66v21.34m0 10.66v21.34m0 10.66V274l-.07.94-.22.9-.35.88-.5.8-.6.72-.72.6-.8.5-.88.37-.9.23-.95.07h-10.44m-10.45 0h-20.88m-10.44 0h-20.9m-10.44 0h-20.88m-10.45 0h-20.88m-10.44 0h-20.9m-10.44 0H606l-.94-.07-.9-.22-.88-.35-.8-.5-.72-.6-.6-.72-.5-.8-.37-.88-.23-.9-.07-.95v-10.67m0-10.66v-21.34m0-10.66v-21.34m0-10.66v-21.34m0-10.66V146l.07-.94.22-.9.35-.88.5-.8.6-.72.72-.6.8-.5.88-.37.9-.23.95-.07h10.44" stroke="#5f787b" stroke-width="2" fill="none"/><use xlink:href="#y" transform="matrix(1,0,0,1,605,145) translate(58.22786458333333 57.489583333333336)"/><use xlink:href="#s" transform="matrix(1,0,0,1,605,145) translate(25.82552083333333 91.86458333333334)"/><path d="M700 282v8.72m0 8.72v17.45m0 8.7v17.45m0 8.73v8.72" stroke="#c57037" stroke-width="2" fill="none"/><path d="M701 282.03h-2V281h2z" stroke="#c57037" stroke-width=".05" fill="#c57037"/><path d="M700 375.76l-4.63-14.26h9.26z" stroke="#c57037" stroke-width="2" fill="#fff"/><path d="M1360 726a6 6 0 0 1 6-6h188a6 6 0 0 1 6 6v128a6 6 0 0 1-6 6h-188a6 6 0 0 1-6-6z" fill="#ecc88a"/><path d="M1386.9 720h20.88m10.44 0h20.9m10.44 0h20.88m10.45 0h20.88m10.44 0h20.9m10.44 0H1554l.94.07.9.22.88.35.8.5.72.6.6.72.5.8.37.88.23.9.07.95v10.67m0 10.66v21.34m0 10.66v21.34m0 10.66v21.34m0 10.66V854l-.07.94-.22.9-.35.88-.5.8-.6.72-.72.6-.8.5-.88.37-.9.23-.95.07h-10.44m-10.45 0h-20.88m-10.44 0h-20.9m-10.44 0h-20.88m-10.45 0h-20.88m-10.44 0h-20.9m-10.44 0H1366l-.94-.07-.9-.22-.88-.35-.8-.5-.72-.6-.6-.72-.5-.8-.37-.88-.23-.9-.07-.95v-10.67m0-10.66v-21.34m0-10.66v-21.34m0-10.66v-21.34m0-10.66V726l.07-.94.22-.9.35-.88.5-.8.6-.72.72-.6.8-.5.88-.37.9-.23.95-.07h10.44" stroke="#5f787b" stroke-width="2" fill="none"/><use xlink:href="#d" transform="matrix(1,0,0,1,1365,725) translate(40.884114583333336 57.489583333333336)"/><use xlink:href="#s" transform="matrix(1,0,0,1,1365,725) translate(25.82552083333333 91.86458333333334)"/><path d="M1358 790h-8.72m-8.72 0h-17.45m-8.7 0h-17.45m-8.73 0h-8.72" stroke="#c57037" stroke-width="2" fill="none"/><path d="M1359 791h-1.03v-2h1.03z" stroke="#c57037" stroke-width=".05" fill="#c57037"/><path d="M1264.24 790l14.26-4.63v9.26z" stroke="#c57037" stroke-width="2" fill="#fff"/><path d="M1800 146a6 6 0 0 1 6-6h188a6 6 0 0 1 6 6v128a6 6 0 0 1-6 6h-188a6 6 0 0 1-6-6z" fill="#ecc88a"/><path d="M1826.9 140h20.88m10.44 0h20.9m10.44 0h20.88m10.45 0h20.88m10.44 0h20.9m10.44 0H1994l.94.07.9.22.88.35.8.5.72.6.6.72.5.8.37.88.23.9.07.95v10.67m0 10.66v21.34m0 10.66v21.34m0 10.66v21.34m0 10.66V274l-.07.94-.22.9-.35.88-.5.8-.6.72-.72.6-.8.5-.88.37-.9.23-.95.07h-10.44m-10.45 0h-20.88m-10.44 0h-20.9m-10.44 0h-20.88m-10.45 0h-20.88m-10.44 0h-20.9m-10.44 0H1806l-.94-.07-.9-.22-.88-.35-.8-.5-.72-.6-.6-.72-.5-.8-.37-.88-.23-.9-.07-.95v-10.67m0-10.66v-21.34m0-10.66v-21.34m0-10.66v-21.34m0-10.66V146l.07-.94.22-.9.35-.88.5-.8.6-.72.72-.6.8-.5.88-.37.9-.23.95-.07h10.44" stroke="#5f787b" stroke-width="2" fill="none"/><use xlink:href="#g" transform="matrix(1,0,0,1,1805,145) translate(6.73046875 73.86458333333334)"/><use xlink:href="#s" transform="matrix(1,0,0,1,1805,145) translate(44.92057291666667 73.86458333333334)"/><path d="M1900 282v8.72m0 8.72v17.45m0 8.7v17.45m0 8.73v8.72" stroke="#c57037" stroke-width="2" fill="none"/><path d="M1901 282.03h-2V281h2z" stroke="#c57037" stroke-width=".05" fill="#c57037"/><path d="M1900 375.76l-4.63-14.26h9.27z" stroke="#c57037" stroke-width="2" fill="#fff"/><path d="M1900 282v14m0 14v14l-.07.94-.22.9-.35.88-.5.8-.6.72-.72.6-.8.5-.88.37-.9.23-.95.07h-9.6m-9.6 0h-19.2m-9.6 0h-19.2m-9.6 0H1798m-9.6 0h-19.2m-9.6 0h-19.2m-9.6 0h-19.2m-9.6 0h-19.2m-9.6 0H1654m-9.6 0h-19.2m-9.6 0h-9.6l-.94.07-.9.22-.88.35-.8.5-.72.6-.6.72-.5.8-.37.88-.23.9-.07.95v8.17m0 8.16v8.17" stroke="#c57037" stroke-width="2" fill="none"/><path d="M1901 282.03h-2V281h2z" stroke="#c57037" stroke-width=".05" fill="#c57037"/><path d="M1600 375.76l-4.63-14.26h9.27z" stroke="#c57037" stroke-width="2" fill="#fff"/><path d="M1900 282v14m0 14v14l.07.94.22.9.35.88.5.8.6.72.72.6.8.5.88.37.9.23.95.07h9.6m9.6 0h19.2m9.6 0h19.2m9.6 0h19.2m9.6 0h19.2m9.6 0h19.2m9.6 0h19.2m9.6 0h19.2m9.6 0h19.2m9.6 0h19.2m9.6 0h9.6l.94.07.9.22.88.35.8.5.72.6.6.72.5.8.37.88.23.9.07.95v8.17m0 8.16v8.17" stroke="#c57037" stroke-width="2" fill="none"/><path d="M1901 282.03h-2V281h2z" stroke="#c57037" stroke-width=".05" fill="#c57037"/><path d="M2200 375.76l-4.64-14.26h9.28z" stroke="#c57037" stroke-width="2" fill="#fff"/><path d="M280.5 451H272v-2h8.5zm-83.8 0h-12.87v-2h12.86zm-24.28 0H161v-2h11.42zm91.08 0h-1.2v-2h1.2z" stroke="#c57037" stroke-width=".05" fill="#c57037"/><path d="M295.76 450l-14.26 4.63v-9.26z" fill="#fff"/><path d="M299 450l-18.5 6v-12zm-16.5 3.26l10.03-3.26-10.03-3.26zM161.03 451H160v-2h1.03z" stroke="#c57037" stroke-width=".05" fill="#c57037"/><use xlink:href="#z" transform="matrix(1,0,0,1,196.69045468749982,439.45312499999994) translate(0 16.69921875)"/><use xlink:href="#A" transform="matrix(1,0,0,1,196.69045468749982,439.45312499999994) translate(29.4873046875 16.69921875)"/><path d="M580.5 211.1h-9.96v-2h9.96zm-83.8 0H480.9v-2h15.77zm-25.74 0H461v-2h9.96z" stroke="#c57037" stroke-width=".05" fill="#c57037"/><path d="M595.76 210.1l-14.26 4.63v-9.27z" fill="#fff"/><path d="M599 210.1l-18.5 6v-12zm-16.5 3.26l10.03-3.26-10.03-3.26zM461.03 211.1H460v-2h1.03z" stroke="#c57037" stroke-width=".05" fill="#c57037"/><use xlink:href="#z" transform="matrix(1,0,0,1,496.6904547258896,199.5514026769684) translate(0 16.69921875)"/><use xlink:href="#A" transform="matrix(1,0,0,1,496.6904547258896,199.5514026769684) translate(29.4873046875 16.69921875)"/><path d="M1180.5 211h-9.96v-2h9.96zm-83.8 0h-15.78v-2h15.77zm-25.74 0H1061v-2h9.96z" stroke="#c57037" stroke-width=".05" fill="#c57037"/><path d="M1195.76 210l-14.26 4.63v-9.26z" fill="#fff"/><path d="M1199 210l-18.5 6v-12zm-16.5 3.26l10.03-3.26-10.03-3.26zM1061.03 211H1060v-2h1.03z" stroke="#c57037" stroke-width=".05" fill="#c57037"/><use xlink:href="#z" transform="matrix(1,0,0,1,1096.6904546874998,199.45312500000006) translate(0 16.69921875)"/><use xlink:href="#A" transform="matrix(1,0,0,1,1096.6904546874998,199.45312500000006) translate(29.4873046875 16.69921875)"/><path d="M1780.5 211h-9.96v-2h9.96zm-83.8 0h-15.78v-2h15.77zm-25.74 0H1661v-2h9.96z" stroke="#c57037" stroke-width=".05" fill="#c57037"/><path d="M1795.76 210l-14.26 4.63v-9.26z" fill="#fff"/><path d="M1799 210l-18.5 6v-12zm-16.5 3.26l10.03-3.26-10.03-3.26zM1661.03 211H1660v-2h1.03z" stroke="#c57037" stroke-width=".05" fill="#c57037"/><use xlink:href="#z" transform="matrix(1,0,0,1,1696.6904546874998,199.45312500000006) translate(0 16.69921875)"/><use xlink:href="#A" transform="matrix(1,0,0,1,1696.6904546874998,199.45312500000006) translate(29.4873046875 16.69921875)"/><path d="M1699 791h-9.96v-2h9.96zm-109.54 0h-9.96v-2h9.96zm89.62 0h-15.77v-2h15.78z" stroke="#c57037" stroke-width=".05" fill="#c57037"/><path d="M1700 791h-1.03v-2h1.03z" stroke="#c57037" stroke-width=".05" fill="#c57037"/><path d="M1578.5 794.63l-14.26-4.63 14.26-4.63z" fill="#fff"/><path d="M1579.5 796l-18.5-6 18.5-6zm-12.03-6l10.03 3.26v-6.52z" stroke="#c57037" stroke-width=".05" fill="#c57037"/><g><use xlink:href="#z" transform="matrix(1,0,0,1,1597.6904046875002,779.453125) translate(0 16.69921875)"/><use xlink:href="#A" transform="matrix(1,0,0,1,1597.6904046875002,779.453125) translate(29.4873046875 16.69921875)"/></g><path d="M460 920h54.3v260H460zM514.3 920h54.27v260H514.3zM568.57 920h54.3v260h-54.3z" stroke="#5f787b" stroke-width="2" fill-opacity="0"/><path d="M622.86 920h54.28v260h-54.28zM677.14 920h54.3v260h-54.3z" stroke="#5f787b" stroke-width="2" fill-opacity="0"/><path d="M731.43 920h54.28v260h-54.27z" stroke="#5f787b" stroke-width="2" fill-opacity="0"/><path d="M785.7 920H840v260h-54.3z" stroke="#5f787b" stroke-width="2" fill-opacity="0"/><path d="M460 920h380v260H460z" stroke="#5f787b" stroke-width="2" fill-opacity="0"/><path d="M491.67 926a6 6 0 0 1 6-6h19.66a6 6 0 0 1 6 6v157a6 6 0 0 1-6 6h-19.66a6 6 0 0 1-6-6zM555 926a6 6 0 0 1 6-6h19.67a6 6 0 0 1 6 6v157a6 6 0 0 1-6 6H561a6 6 0 0 1-6-6zM650 926a6 6 0 0 1 6-6h19.67a6 6 0 0 1 6 6v157a6 6 0 0 1-6 6H656a6 6 0 0 1-6-6zM713.33 926a6 6 0 0 1 6-6H739a6 6 0 0 1 6 6v157a6 6 0 0 1-6 6h-19.67a6 6 0 0 1-6-6zM776.67 926a6 6 0 0 1 6-6h19.66a6 6 0 0 1 6 6v157a6 6 0 0 1-6 6h-19.66a6 6 0 0 1-6-6z" stroke="#5f787b" stroke-width="2" fill="#6c514a"/><defs><path fill="#5f787b" d="M503-687l240-395h216L605-547 970 0H756L506-405 256 0H41l365-547-354-535h214" id="B"/><path fill="#5f787b" d="M832-402c-1-179-119-264-303-265H390v-151h139c164 0 281-91 281-250 0-171-85-256-255-256-154 0-265 99-263 250H107c-4-235 205-402 448-402 266 0 444 150 440 412-2 148-109 272-229 317 147 45 249 158 251 341 3 262-197 426-461 426C299 20 91-135 94-384h186c-2 156 116 253 276 253 176 0 277-96 276-271" id="C"/><path fill="#5f787b" d="M569-1476c255 0 440 146 439 390 0 143-91 314-274 512L344-151h731V0H121v-133l504-560c75-85 125-155 155-207 105-184 6-424-211-424-183 0-293 113-291 297H93c-3-270 199-449 476-449" id="D"/><g id="a"><use transform="matrix(0.0087890625,0,0,0.0087890625,0,0)" xlink:href="#B"/><use transform="matrix(0.0087890625,0,0,0.0087890625,8.9208984375,0)" xlink:href="#C"/><use transform="matrix(0.0087890625,0,0,0.0087890625,19.0283203125,0)" xlink:href="#D"/></g><path fill="#6c514a" d="M952-300H426L326 0H7l542-1456h278L1372 0h-319zM507-543h364l-183-545" id="E"/><path fill="#6c514a" d="M741-689c-2-124-40-177-163-178-82 0-141 34-178 102V0H111v-1082h271l9 121c77-94 180-141 311-141 139 0 235 55 287 165 76-110 184-165 325-165 249 0 348 151 348 411V0h-290v-690c-2-123-39-176-163-177-87 0-147 41-180 124l1 743H741v-689" id="F"/><path fill="#6c514a" d="M663-1102c295 0 422 250 422 571 0 300-141 549-420 551-109 0-198-38-265-114v510H111v-1498h268l10 106c70-84 161-126 274-126zm133 550c0-175-53-315-209-315-91 0-153 35-187 104v443c35 71 98 107 189 107 138 0 207-113 207-339" id="G"/><path fill="#6c514a" d="M416 0H126v-1536h290V0" id="H"/><path fill="#6c514a" d="M416 0H126v-1082h290V0zM271-1212c-92 0-162-61-162-150s68-149 162-149c93 0 162 60 162 149s-70 150-162 150" id="I"/><path fill="#6c514a" d="M190-1174c-11-296 244-440 544-363l-3 224c-24-6-53-9-88-9-109 0-163 51-163 153v87h215v212H480V0H190v-870H29v-212h161v-92" id="J"/><path fill="#6c514a" d="M1031-175C952-60 797 20 609 20 287 20 60-206 72-543c12-330 180-559 505-559 309 0 482 214 477 537v118H365c15 134 115 234 263 234 111 0 198-40 261-121zM770-644c5-139-62-226-194-224-130 1-191 97-208 224h402" id="K"/><path fill="#6c514a" d="M719-811c-143-24-279 1-319 103V0H111v-1082h273l8 129c74-124 180-175 331-136" id="L"/><g id="b"><use transform="matrix(0.013020833333333334,0,0,0.013020833333333334,0,0)" xlink:href="#E"/><use transform="matrix(0.013020833333333334,0,0,0.013020833333333334,17.942708333333336,0)" xlink:href="#F"/><use transform="matrix(0.013020833333333334,0,0,0.013020833333333334,41.028645833333336,0)" xlink:href="#G"/><use transform="matrix(0.013020833333333334,0,0,0.013020833333333334,56.04166666666667,0)" xlink:href="#H"/><use transform="matrix(0.013020833333333334,0,0,0.013020833333333334,63.11197916666667,0)" xlink:href="#I"/><use transform="matrix(0.013020833333333334,0,0,0.013020833333333334,70.18229166666667,0)" xlink:href="#J"/><use transform="matrix(0.013020833333333334,0,0,0.013020833333333334,79.73958333333334,0)" xlink:href="#I"/><use transform="matrix(0.013020833333333334,0,0,0.013020833333333334,86.80989583333334,0)" xlink:href="#K"/><use transform="matrix(0.013020833333333334,0,0,0.013020833333333334,101.22395833333334,0)" xlink:href="#L"/></g><path fill="#c57037" d="M362-157h690V0H169v-1456h193v1299" id="M"/><use transform="matrix(0.0087890625,0,0,0.0087890625,0,0)" xlink:href="#M" id="c"/><path fill="#6c514a" d="M1006-631H430v390h676V0H130v-1456h974v243H430v347h576v235" id="N"/><path fill="#6c514a" d="M750-692c-1-124-48-174-173-175-81 0-142 35-183 104V0H105v-1082h272l9 125c77-97 181-145 311-145 244 0 342 151 342 403V0H750v-692" id="O"/><path fill="#6c514a" d="M516-353l201-729h302L654 0H378L13-1082h302" id="P"/><path fill="#6c514a" d="M579 20C257 20 58-214 66-551c8-331 182-551 511-551 324 0 514 231 514 572 0 319-198 550-512 550zm-2-888c-169 0-222 141-222 338 0 181 61 317 224 317 170 0 223-137 223-338 0-178-64-317-225-317" id="Q"/><g id="d"><use transform="matrix(0.013020833333333334,0,0,0.013020833333333334,0,0)" xlink:href="#N"/><use transform="matrix(0.013020833333333334,0,0,0.013020833333333334,15,0)" xlink:href="#O"/><use transform="matrix(0.013020833333333334,0,0,0.013020833333333334,29.934895833333336,0)" xlink:href="#P"/><use transform="matrix(0.013020833333333334,0,0,0.013020833333333334,43.2421875,0)" xlink:href="#K"/><use transform="matrix(0.013020833333333334,0,0,0.013020833333333334,57.65625,0)" xlink:href="#H"/><use transform="matrix(0.013020833333333334,0,0,0.013020833333333334,64.7265625,0)" xlink:href="#Q"/><use transform="matrix(0.013020833333333334,0,0,0.013020833333333334,79.8046875,0)" xlink:href="#G"/><use transform="matrix(0.013020833333333334,0,0,0.013020833333333334,94.81770833333333,0)" xlink:href="#K"/></g><path fill="#6c514a" d="M399-777c-11 316 60 556 342 556 113 0 193-24 241-72v-251H709v-221h573v581C1177-55 960 24 725 20 280 12 81-292 94-770c11-421 200-700 610-706 347-5 543 171 578 483H990c-25-157-105-241-277-241-102 0-180 38-233 115s-76 191-81 342" id="R"/><path fill="#6c514a" d="M552-1102c254-4 435 134 435 383v469c1 103 15 180 43 233V0H738c-13-26-23-58-29-97C639-19 548 20 436 20 238 20 64-113 68-304c5-258 212-357 496-357h133c11-137-29-227-160-227-90 0-156 45-156 131H92c15-231 213-342 460-345zM357-325c0 76 61 124 142 124 88 0 168-45 198-105v-186H589c-152 2-232 51-232 167" id="S"/><path fill="#6c514a" d="M457-330c2 83 25 111 111 112 32 0 60-2 85-7V-6c-57 17-115 26-175 26-203 0-310-102-310-307v-583H10v-212h158v-266h289v266h185v212H457v540" id="T"/><g id="e"><use transform="matrix(0.013020833333333334,0,0,0.013020833333333334,0,0)" xlink:href="#R"/><use transform="matrix(0.013020833333333334,0,0,0.013020833333333334,18.1640625,0)" xlink:href="#K"/><use transform="matrix(0.013020833333333334,0,0,0.013020833333333334,32.578125,0)" xlink:href="#O"/><use transform="matrix(0.013020833333333334,0,0,0.013020833333333334,47.513020833333336,0)" xlink:href="#K"/><use transform="matrix(0.013020833333333334,0,0,0.013020833333333334,61.927083333333336,0)" xlink:href="#L"/><use transform="matrix(0.013020833333333334,0,0,0.013020833333333334,71.26302083333334,0)" xlink:href="#S"/><use transform="matrix(0.013020833333333334,0,0,0.013020833333333334,85.55989583333334,0)" xlink:href="#T"/><use transform="matrix(0.013020833333333334,0,0,0.013020833333333334,94.17968750000001,0)" xlink:href="#Q"/><use transform="matrix(0.013020833333333334,0,0,0.013020833333333334,109.2578125,0)" xlink:href="#L"/></g><path fill="#c57037" d="M1161-1018c0 201-122 330-278 388l342 618V0h-206L703-589H361V0H168v-1456h482c310-2 511 139 511 438zm-193 0c0-187-120-280-313-280H361v552h295c179 3 313-101 312-272" id="U"/><use transform="matrix(0.0087890625,0,0,0.0087890625,0,0)" xlink:href="#U" id="f"/><path fill="#6c514a" d="M1006-595H430V0H130v-1456h948v243H430v376h576v242" id="V"/><path fill="#6c514a" d="M651-954l273-502h345L845-734 1280 0H931L651-510 371 0H22l435-734-424-722h345" id="W"/><g id="g"><use transform="matrix(0.013020833333333334,0,0,0.013020833333333334,0,0)" xlink:href="#V"/><use transform="matrix(0.013020833333333334,0,0,0.013020833333333334,14.609375,0)" xlink:href="#W"/></g><path fill="#6c514a" d="M658-217c127 0 227-49 227-165 0-57-21-98-60-130-79-64-370-142-463-196-162-95-248-210-248-361 0-280 246-403 537-407 213-3 383 84 467 216 45 69 68 147 68 234H886c0-139-96-211-240-211-129 0-232 55-232 169 0 47 24 87 72 119s117 62 210 90c171 51 295 115 373 191s117 171 117 284c-2 272-237 411-528 404C331 13 78-135 69-458h301c0 161 96 241 288 241" id="X"/><g id="h"><use transform="matrix(0.013020833333333334,0,0,0.013020833333333334,0,0)" xlink:href="#X"/><use transform="matrix(0.013020833333333334,0,0,0.013020833333333334,16.393229166666668,0)" xlink:href="#H"/><use transform="matrix(0.013020833333333334,0,0,0.013020833333333334,23.463541666666668,0)" xlink:href="#Q"/><use transform="matrix(0.013020833333333334,0,0,0.013020833333333334,38.54166666666667,0)" xlink:href="#T"/></g><path fill="#6c514a" d="M667-410H474L402 0H219l72-410H64v-172h257l50-284H139v-174h263l73-416h182l-73 416h194l73-416h183l-73 416h219v174H930l-50 284h224v172H850L778 0H595zM504-582h193l50-284H553" id="Y"/><path fill="#6c514a" d="M801 0H512v-1114l-345 107v-235l603-216h31V0" id="Z"/><g id="i"><use transform="matrix(0.013020833333333334,0,0,0.013020833333333334,0,0)" xlink:href="#Y"/><use transform="matrix(0.013020833333333334,0,0,0.013020833333333334,15.885416666666668,0)" xlink:href="#Z"/></g><path fill="#6c514a" d="M587-1476c267 0 463 149 461 407-1 157-88 261-199 319 127 61 229 174 230 351 1 270-209 419-491 419S94-130 95-399c1-176 103-291 229-351-111-58-196-162-198-319-1-257 194-407 461-407zm1 1263c125 0 201-80 201-207 0-124-80-209-203-209s-202 85-202 209c0 123 79 207 204 207zm0-649c111 0 171-81 171-193 0-110-62-188-172-188s-171 75-171 188c0 112 61 193 172 193" id="aa"/><g id="j"><use transform="matrix(0.013020833333333334,0,0,0.013020833333333334,0,0)" xlink:href="#Y"/><use transform="matrix(0.013020833333333334,0,0,0.013020833333333334,15.885416666666668,0)" xlink:href="#aa"/></g><path fill="#6c514a" d="M1248-1138c106 220 104 603 2 820-91 195-274 338-542 338C281 20 86-300 86-759c0-291 115-515 296-629 182-114 467-115 648 0 94 60 166 141 218 250zM940-344c111-153 110-617 0-765-57-77-133-119-234-119s-177 41-233 118c-64 88-83 240-83 415 0 149 27 264 82 346s133 123 236 123c101 0 176-40 232-118" id="ab"/><path fill="#6c514a" d="M463 20c-241-1-359-147-359-393v-709h289v699c0 113 51 169 154 169 98 0 165-34 202-102v-766h290V0H767l-8-110C688-23 589 20 463 20" id="ac"/><g id="k"><use transform="matrix(0.013020833333333334,0,0,0.013020833333333334,0,0)" xlink:href="#ab"/><use transform="matrix(0.013020833333333334,0,0,0.013020833333333334,18.411458333333336,0)" xlink:href="#ac"/><use transform="matrix(0.013020833333333334,0,0,0.013020833333333334,33.333333333333336,0)" xlink:href="#T"/><use transform="matrix(0.013020833333333334,0,0,0.013020833333333334,42.34375,0)" xlink:href="#G"/><use transform="matrix(0.013020833333333334,0,0,0.013020833333333334,57.356770833333336,0)" xlink:href="#ac"/><use transform="matrix(0.013020833333333334,0,0,0.013020833333333334,72.27864583333334,0)" xlink:href="#T"/></g><path fill="#6c514a" d="M576-1476c284-5 474 140 474 413 0 72-17 146-56 220-110 211-361 428-523 610h626V0H99v-198l471-502c65-71 110-134 144-185 92-140 43-358-143-358-134 0-213 107-211 245H70c11-295 206-473 506-478" id="ad"/><path fill="#6c514a" d="M289 11c-91 0-163-63-163-153 0-91 73-155 163-155 91 0 164 64 164 155S381 11 289 11" id="ae"/><path fill="#6c514a" d="M1089-1294L526 0H221l564-1222H61v-234h1028v162" id="af"/><g id="l"><use transform="matrix(0.013020833333333334,0,0,0.013020833333333334,0,0)" xlink:href="#Y"/><use transform="matrix(0.013020833333333334,0,0,0.013020833333333334,15.885416666666668,0)" xlink:href="#ad"/><use transform="matrix(0.013020833333333334,0,0,0.013020833333333334,31.184895833333336,0)" xlink:href="#ae"/><use transform="matrix(0.013020833333333334,0,0,0.013020833333333334,38.93229166666667,0)" xlink:href="#ae"/><use transform="matrix(0.013020833333333334,0,0,0.013020833333333334,46.67968750000001,0)" xlink:href="#Y"/><use transform="matrix(0.013020833333333334,0,0,0.013020833333333334,62.56510416666667,0)" xlink:href="#af"/></g><path fill="#6c514a" d="M668-361l330-1095h334L825 0H512L7-1456h333" id="ag"/><path fill="#6c514a" d="M355-556c-2 203 30 338 206 343 102 3 181-63 182-161h271C1001-128 821 17 566 20 242 24 66-212 66-554c0-320 184-548 498-548 262 0 451 167 450 423H743c-1-108-75-193-184-189-162 6-202 123-204 312" id="ah"/><g id="m"><use transform="matrix(0.013020833333333334,0,0,0.013020833333333334,0,0)" xlink:href="#ag"/><use transform="matrix(0.013020833333333334,0,0,0.013020833333333334,16.835937500000004,0)" xlink:href="#Q"/><use transform="matrix(0.013020833333333334,0,0,0.013020833333333334,31.9140625,0)" xlink:href="#I"/><use transform="matrix(0.013020833333333334,0,0,0.013020833333333334,38.984375,0)" xlink:href="#ah"/><use transform="matrix(0.013020833333333334,0,0,0.013020833333333334,52.890625,0)" xlink:href="#K"/></g><path fill="#6c514a" d="M522-1456L896-400l372-1056h394V0h-301c-7-379 15-728 30-1085L998 0H792L400-1084c15 357 37 705 30 1084H130v-1456h392" id="ai"/><path fill="#6c514a" d="M523-759l182-323h309L706-552 1027 0H717L524-340 332 0H21l321-552-307-530h310" id="aj"/><g id="n"><use transform="matrix(0.013020833333333334,0,0,0.013020833333333334,0,0)" xlink:href="#ai"/><use transform="matrix(0.013020833333333334,0,0,0.013020833333333334,23.359375,0)" xlink:href="#I"/><use transform="matrix(0.013020833333333334,0,0,0.013020833333333334,30.4296875,0)" xlink:href="#aj"/></g><path fill="#6c514a" d="M529-185c94 0 168-33 168-114 0-35-18-63-53-83s-91-39-168-55C219-491 90-600 90-765c0-208 203-337 432-337 246 0 451 124 453 349H686c-2-91-62-143-165-143-86 0-151 41-153 117 0 32 16 57 46 77 63 43 257 69 335 100 151 60 229 153 229 291C978-13 554 93 282-28 162-81 60-190 56-344h274c5 106 86 159 199 159" id="ak"/><g id="o"><use transform="matrix(0.013020833333333334,0,0,0.013020833333333334,0,0)" xlink:href="#ab"/><use transform="matrix(0.013020833333333334,0,0,0.013020833333333334,18.411458333333336,0)" xlink:href="#ak"/><use transform="matrix(0.013020833333333334,0,0,0.013020833333333334,32.122395833333336,0)" xlink:href="#ah"/><use transform="matrix(0.013020833333333334,0,0,0.013020833333333334,46.028645833333336,0)" xlink:href="#I"/><use transform="matrix(0.013020833333333334,0,0,0.013020833333333334,53.098958333333336,0)" xlink:href="#H"/><use transform="matrix(0.013020833333333334,0,0,0.013020833333333334,60.169270833333336,0)" xlink:href="#H"/><use transform="matrix(0.013020833333333334,0,0,0.013020833333333334,67.23958333333334,0)" xlink:href="#S"/><use transform="matrix(0.013020833333333334,0,0,0.013020833333333334,81.53645833333334,0)" xlink:href="#T"/><use transform="matrix(0.013020833333333334,0,0,0.013020833333333334,90.15625000000001,0)" xlink:href="#Q"/><use transform="matrix(0.013020833333333334,0,0,0.013020833333333334,105.23437500000001,0)" xlink:href="#L"/></g><path fill="#c57037" d="M1288 0h-193L362-1122V0H169v-1456h193l735 1127v-1127h191V0" id="al"/><path fill="#c57037" d="M584 20C278 26 81-227 91-551c10-320 175-545 491-551 308-5 503 247 494 573-9 322-175 543-492 549zm-2-970c-208 0-305 185-305 421 0 216 106 398 307 398 211 0 307-186 307-420 0-214-109-399-309-399" id="am"/><path fill="#c57037" d="M456 20C285 20 205-92 206-268v-671H9v-143h197v-262h185v262h202v143H391v671c-9 125 92 149 207 118V0c-49 13-96 20-142 20" id="an"/><path fill="#c57037" d="M599-131c141 0 220-65 285-146l113 88C906-50 770 20 589 20 281 21 93-214 93-545c0-223 93-397 233-485 74-48 154-72 240-72 300 2 449 218 445 537v77H278c0 197 129 357 321 357zm227-509c-3-180-88-310-260-310-170 0-264 140-282 310h542" id="ao"/><g id="p"><use transform="matrix(0.0087890625,0,0,0.0087890625,0,0)" xlink:href="#al"/><use transform="matrix(0.0087890625,0,0,0.0087890625,12.83203125,0)" xlink:href="#am"/><use transform="matrix(0.0087890625,0,0,0.0087890625,23.09765625,0)" xlink:href="#an"/><use transform="matrix(0.0087890625,0,0,0.0087890625,28.9775390625,0)" xlink:href="#ao"/></g><path fill="#c57037" d="M703-1476c426 0 599 333 586 795-11 408-187 701-584 701-422 0-587-333-587-793 0-282 106-507 280-617 89-56 190-86 305-86zm2 1333c312 0 393-279 393-632 0-308-116-536-395-536-269 0-394 232-394 523v107c-4 298 123 538 396 538" id="ap"/><path fill="#c57037" d="M589-945c-131 0-219 81-264 174V0H140v-1082h175l6 136c83-104 191-156 324-156 229 0 346 129 346 387V0H806v-716c-2-153-65-229-217-229" id="aq"/><path fill="#c57037" d="M177 125H18l608-1581h158" id="ar"/><path fill="#c57037" d="M704-1390c-164-38-297 28-288 194v114h231v143H416V0H231v-939H60v-143h171v-111c-12-274 208-416 483-347" id="as"/><g id="q"><use transform="matrix(0.0087890625,0,0,0.0087890625,0,0)" xlink:href="#ap"/><use transform="matrix(0.0087890625,0,0,0.0087890625,12.375,0)" xlink:href="#aq"/><use transform="matrix(0.0087890625,0,0,0.0087890625,22.306640625,0)" xlink:href="#ar"/><use transform="matrix(0.0087890625,0,0,0.0087890625,29.724609375,0)" xlink:href="#ap"/><use transform="matrix(0.0087890625,0,0,0.0087890625,42.099609375,0)" xlink:href="#as"/><use transform="matrix(0.0087890625,0,0,0.0087890625,48.3486328125,0)" xlink:href="#as"/></g><path fill="#6c514a" d="M1226-1213H780V0H480v-1213H40v-243h1186v243" id="at"/><path fill="#6c514a" d="M505 20C221 18 69-239 69-549c0-302 153-553 438-553 119 0 211 41 277 122l12-102h262V-36c-8 305-208 458-520 462-160 1-335-76-403-170L263 80c72 81 159 121 262 121 172 1 260-107 243-294C701-18 614 20 505 20zm76-887c-165 0-223 147-223 339 0 172 66 314 221 314 88 0 151-33 189-99v-455c-39-66-101-99-187-99" id="au"/><g id="r"><use transform="matrix(0.013020833333333334,0,0,0.013020833333333334,0,0)" xlink:href="#at"/><use transform="matrix(0.013020833333333334,0,0,0.013020833333333334,15.65104166666667,0)" xlink:href="#ac"/><use transform="matrix(0.013020833333333334,0,0,0.013020833333333334,30.572916666666675,0)" xlink:href="#O"/><use transform="matrix(0.013020833333333334,0,0,0.013020833333333334,45.50781250000001,0)" xlink:href="#I"/><use transform="matrix(0.013020833333333334,0,0,0.013020833333333334,52.57812500000001,0)" xlink:href="#O"/><use transform="matrix(0.013020833333333334,0,0,0.013020833333333334,67.51302083333334,0)" xlink:href="#au"/></g><path fill="#6c514a" d="M1245-974c0 302-233 466-552 461H430V0H130v-1456h568c323 5 547 167 547 482zm-303 2c1-143-93-241-237-241H430v457h268c151 1 244-71 244-216" id="av"/><g id="s"><use transform="matrix(0.013020833333333334,0,0,0.013020833333333334,0,0)" xlink:href="#av"/><use transform="matrix(0.013020833333333334,0,0,0.013020833333333334,17.057291666666668,0)" xlink:href="#S"/><use transform="matrix(0.013020833333333334,0,0,0.013020833333333334,31.354166666666668,0)" xlink:href="#L"/><use transform="matrix(0.013020833333333334,0,0,0.013020833333333334,40.69010416666667,0)" xlink:href="#S"/><use transform="matrix(0.013020833333333334,0,0,0.013020833333333334,54.98697916666667,0)" xlink:href="#F"/><use transform="matrix(0.013020833333333334,0,0,0.013020833333333334,78.07291666666667,0)" xlink:href="#K"/><use transform="matrix(0.013020833333333334,0,0,0.013020833333333334,92.48697916666667,0)" xlink:href="#T"/><use transform="matrix(0.013020833333333334,0,0,0.013020833333333334,101.49739583333334,0)" xlink:href="#K"/><use transform="matrix(0.013020833333333334,0,0,0.013020833333333334,115.91145833333334,0)" xlink:href="#L"/><use transform="matrix(0.013020833333333334,0,0,0.013020833333333334,125.63802083333334,0)" xlink:href="#ak"/></g><path fill="#c57037" d="M1216-1011c-1 297-202 441-512 441H361V0H169v-1456h537c297-6 510 164 510 445zm-192 2c1-178-126-288-307-289H361v571h345c196 1 318-92 318-282" id="aw"/><path fill="#c57037" d="M341 0H156v-1082h185V0zm-91-1264c-68 0-108-42-109-105 0-62 41-107 109-107s110 44 110 107-42 105-110 105" id="ax"/><path fill="#c57037" d="M277-555c0 244 77 420 297 424 127 2 249-93 255-210h175C980-127 805 20 574 20 258 20 81-222 92-562c11-319 164-533 481-540 237-5 426 165 431 392H829c-7-133-115-242-256-240-209 4-296 166-296 395" id="ay"/><path fill="#c57037" d="M589-945c-131 0-219 81-264 174V0H140v-1536h185v585c82-101 189-151 320-151 229 0 346 129 346 387V0H806v-716c-2-153-65-229-217-229" id="az"/><g id="t"><use transform="matrix(0.0087890625,0,0,0.0087890625,0,0)" xlink:href="#aw"/><use transform="matrix(0.0087890625,0,0,0.0087890625,11.35546875,0)" xlink:href="#ax"/><use transform="matrix(0.0087890625,0,0,0.0087890625,15.7236328125,0)" xlink:href="#an"/><use transform="matrix(0.0087890625,0,0,0.0087890625,21.603515625,0)" xlink:href="#ay"/><use transform="matrix(0.0087890625,0,0,0.0087890625,31.025390625,0)" xlink:href="#az"/></g><path fill="#c57037" d="M483-459l28 192 41-173 288-1016h162l281 1016 40 176 31-196 226-996h193L1420 0h-175L945-1061l-23-111-23 111L588 0H413L61-1456h192" id="aA"/><path fill="#c57037" d="M341 0H156v-1536h185V0" id="aB"/><g id="u"><use transform="matrix(0.0087890625,0,0,0.0087890625,0,0)" xlink:href="#aA"/><use transform="matrix(0.0087890625,0,0,0.0087890625,15.9697265625,0)" xlink:href="#az"/><use transform="matrix(0.0087890625,0,0,0.0087890625,25.8837890625,0)" xlink:href="#ao"/><use transform="matrix(0.0087890625,0,0,0.0087890625,35.419921875,0)" xlink:href="#ao"/><use transform="matrix(0.0087890625,0,0,0.0087890625,44.9560546875,0)" xlink:href="#aB"/></g><path fill="#c57037" d="M651-255l416-1201h210L737 0H567L28-1456h209" id="aC"/><path fill="#c57037" d="M494-271l252-811h198L509 167C425 381 299 474 84 421V271c167 16 242-37 283-173l41-110L22-1082h202" id="aD"/><g id="v"><use transform="matrix(0.0087890625,0,0,0.0087890625,0,0)" xlink:href="#aC"/><use transform="matrix(0.0087890625,0,0,0.0087890625,11.0654296875,0)" xlink:href="#ao"/><use transform="matrix(0.0087890625,0,0,0.0087890625,20.6015625,0)" xlink:href="#aB"/><use transform="matrix(0.0087890625,0,0,0.0087890625,24.9697265625,0)" xlink:href="#am"/><use transform="matrix(0.0087890625,0,0,0.0087890625,35.2353515625,0)" xlink:href="#ay"/><use transform="matrix(0.0087890625,0,0,0.0087890625,44.6572265625,0)" xlink:href="#ax"/><use transform="matrix(0.0087890625,0,0,0.0087890625,49.025390625,0)" xlink:href="#an"/><use transform="matrix(0.0087890625,0,0,0.0087890625,54.9052734375,0)" xlink:href="#aD"/></g><g id="w"><use transform="matrix(0.013020833333333334,0,0,0.013020833333333334,0,0)" xlink:href="#R"/><use transform="matrix(0.013020833333333334,0,0,0.013020833333333334,18.1640625,0)" xlink:href="#S"/><use transform="matrix(0.013020833333333334,0,0,0.013020833333333334,32.4609375,0)" xlink:href="#I"/><use transform="matrix(0.013020833333333334,0,0,0.013020833333333334,39.53125,0)" xlink:href="#O"/></g><g id="x"><use transform="matrix(0.013020833333333334,0,0,0.013020833333333334,0,0)" xlink:href="#av"/><use transform="matrix(0.013020833333333334,0,0,0.013020833333333334,17.057291666666668,0)" xlink:href="#S"/><use transform="matrix(0.013020833333333334,0,0,0.013020833333333334,31.354166666666668,0)" xlink:href="#L"/><use transform="matrix(0.013020833333333334,0,0,0.013020833333333334,40.69010416666667,0)" xlink:href="#S"/><use transform="matrix(0.013020833333333334,0,0,0.013020833333333334,54.98697916666667,0)" xlink:href="#F"/><use transform="matrix(0.013020833333333334,0,0,0.013020833333333334,78.07291666666667,0)" xlink:href="#K"/><use transform="matrix(0.013020833333333334,0,0,0.013020833333333334,92.48697916666667,0)" xlink:href="#T"/><use transform="matrix(0.013020833333333334,0,0,0.013020833333333334,101.49739583333334,0)" xlink:href="#K"/><use transform="matrix(0.013020833333333334,0,0,0.013020833333333334,115.91145833333334,0)" xlink:href="#L"/></g><path fill="#6c514a" d="M750-685c-1-124-48-182-173-182-85 0-146 33-184 98V0H104v-1536h289v572c77-92 173-138 289-138 235 0 357 136 357 409V0H750v-685" id="aE"/><g id="y"><use transform="matrix(0.013020833333333334,0,0,0.013020833333333334,0,0)" xlink:href="#av"/><use transform="matrix(0.013020833333333334,0,0,0.013020833333333334,17.200520833333336,0)" xlink:href="#aE"/><use transform="matrix(0.013020833333333334,0,0,0.013020833333333334,32.122395833333336,0)" xlink:href="#S"/><use transform="matrix(0.013020833333333334,0,0,0.013020833333333334,46.419270833333336,0)" xlink:href="#ak"/><use transform="matrix(0.013020833333333334,0,0,0.013020833333333334,60.130208333333336,0)" xlink:href="#K"/></g><path fill="#c57037" d="M992-673H361v516h733V0H169v-1456h915v158H361v468h631v157" id="aF"/><path fill="#c57037" d="M503-687l240-395h216L605-547 970 0H756L506-405 256 0H41l365-547-354-535h214" id="aG"/><g id="z"><use transform="matrix(0.0087890625,0,0,0.0087890625,0,0)" xlink:href="#aF"/><use transform="matrix(0.0087890625,0,0,0.0087890625,10.23046875,0)" xlink:href="#aG"/><use transform="matrix(0.0087890625,0,0,0.0087890625,19.1513671875,0)" xlink:href="#an"/></g><path fill="#c57037" d="M417-1456L893-268l476-1188h249V0h-192c-4-403 4-794 18-1179L966 0H819L342-1176c15 384 23 773 19 1176H169v-1456h248" id="aH"/><path fill="#c57037" d="M520 20C244 20 95-247 95-550c0-298 151-550 427-552 127 0 227 43 301 130v-564h185V0H838l-9-116C755-25 652 20 520 20zm48-965c-210 0-288 177-288 416 0 218 87 392 286 392 117 0 203-53 257-158v-497c-55-102-140-153-255-153" id="aI"/><g id="A"><use transform="matrix(0.0087890625,0,0,0.0087890625,0,0)" xlink:href="#aH"/><use transform="matrix(0.0087890625,0,0,0.0087890625,15.71484375,0)" xlink:href="#am"/><use transform="matrix(0.0087890625,0,0,0.0087890625,25.98046875,0)" xlink:href="#aI"/></g></defs></g></svg>