<svg xmlns="http://www.w3.org/2000/svg" xmlns:xlink="http://www.w3.org/1999/xlink" xmlns:lucid="lucid" width="967.84" height="2369.9"><g transform="translate(-248.04123711340208 -186.18556701030928)" lucid:page-tab-id="0_0"><path d="M536.08 726.65a5 5 0 0 1 5-5h319.9a5 5 0 0 1 5 5v691.03a5 5 0 0 1-5 5h-319.9a5 5 0 0 1-5-5z" stroke="#6f7681" stroke-width="2" fill="#f6d297"/><use xlink:href="#a" transform="matrix(1,0,0,1,544.0824742268042,729.6494845360826) translate(122.09481990581648 18.327605956471935)"/><path d="M329.72 1216.32c0 11.3-9.15 20.45-20.44 20.45-11.3 0-20.45-9.16-20.45-20.45 0-11.3 9.16-20.44 20.45-20.44 11.3 0 20.44 9.15 20.44 20.44z" stroke="#6f7681" stroke-width="2" fill="#f6d297"/><path d="M309.28 1236.77v52.25a17.3 17.3 0 0 0 2.66 9.23l38.57 61.2M309.3 1294l-41.24 65.42m0-102.23h82.47" stroke="#6f7681" stroke-width="2" fill="none"/><path d="M268.04 1200.88a5 5 0 0 1 5-5h72.47a5 5 0 0 1 5 5v175.56a5 5 0 0 1-5 5h-72.46a5 5 0 0 1-5-5z" fill="none"/><use xlink:href="#b" transform="matrix(1,0,0,1,188.04123711340208,1359.4432989690724) translate(101.16144838997073 14.665521191294387)"/><path d="M536.08 211.2a5 5 0 0 1 5-5h319.9a5 5 0 0 1 5 5v484.83a5 5 0 0 1-5 5h-319.9a5 5 0 0 1-5-5z" stroke="#6f7681" stroke-width="2" fill="#f6d297"/><use xlink:href="#c" transform="matrix(1,0,0,1,544.082474226804,214.18556701030928) translate(101.82626956853763 18.327605956471935)"/><use xlink:href="#d" transform="matrix(1,0,0,1,544.082474226804,214.18556701030928) translate(156.42726231386024 18.327605956471935)"/><path d="M536.08 1448.3a5 5 0 0 1 5-5h649.8a5 5 0 0 1 5 5v1082.78a5 5 0 0 1-5 5h-649.8a5 5 0 0 1-5-5z" stroke="#6f7681" stroke-width="2" fill="#f6d297"/><use xlink:href="#e" transform="matrix(1,0,0,1,544.0824742268042,1451.2989690721647) translate(296.6404480081456 18.327605956471935)"/><path d="M701.3 1729.14h-2v-8.63h2zm0-17.26h-2v-12.9h2zm0-29.4h-2v-13.74h2zm0-22.37h-2v-8.62h2z" stroke="#ac6234" stroke-width=".05" fill="#ac6234"/><path d="M700.3 1650.48l1-.02v1.05h-2v-1.05z" fill="#ac6234"/><path d="M700.3 1650.46l1.02-.03v1.1h-2.05v-1.1zm-.98 1.03h1.95v-1.02l-.98.03-.98-.02zM700.3 1727.03l9.3-15.76 1.74 1.02-11.05 18.66-11.05-18.67 1.72-1.03z" stroke="#ac6234" stroke-width=".05" fill="#ac6234"/><use xlink:href="#f" transform="matrix(1,0,0,1,656.0211914341934,1682.474226702573) translate(0.005000000000002558 10.996563573883165)"/><path d="M783.5 1072.16c0 34.17-36.92 61.86-82.47 61.86s-82.47-27.7-82.47-61.86 36.92-61.85 82.47-61.85 82.48 27.7 82.48 61.87z" stroke="#6f7681" stroke-width="2" fill="#f6d297"/><use xlink:href="#g" transform="matrix(1,0,0,1,618.5567010309278,1010.3092783505156) translate(10.340051546391772 65.03708476517755)"/><use xlink:href="#h" transform="matrix(1,0,0,1,618.5567010309278,1010.3092783505156) translate(69.29385070637647 65.03708476517755)"/><path d="M783.5 865.98c0 34.16-36.92 61.86-82.47 61.86s-82.47-27.7-82.47-61.86 36.92-61.86 82.47-61.86 82.48 27.7 82.48 61.86z" stroke="#6f7681" stroke-width="2" fill="#f6d297"/><use xlink:href="#i" transform="matrix(1,0,0,1,618.5567010309278,804.1237113402065) translate(14.361942853506443 65.03708476517755)"/><use xlink:href="#j" transform="matrix(1,0,0,1,618.5567010309278,804.1237113402065) translate(55.03904607356498 65.03708476517755)"/><path d="M783.5 2206.2c0 34.15-36.92 61.84-82.47 61.84s-82.47-27.7-82.47-61.85c0-34.18 36.92-61.87 82.47-61.87s82.48 27.7 82.48 61.86z" stroke="#6f7681" stroke-width="2" fill="#f6d297"/><use xlink:href="#k" transform="matrix(1,0,0,1,618.5567010309278,2144.3298969072166) translate(15.889243349879104 65.03708476517755)"/><use xlink:href="#l" transform="matrix(1,0,0,1,618.5567010309278,2144.3298969072166) translate(74.8430425098638 65.03708476517755)"/><path d="M783.5 2000c0 34.16-36.92 61.86-82.47 61.86s-82.47-27.7-82.47-61.86 36.92-61.86 82.47-61.86 82.48 27.7 82.48 61.86z" stroke="#6f7681" stroke-width="2" fill="#f6d297"/><use xlink:href="#m" transform="matrix(1,0,0,1,618.5567010309278,1938.1443298969073) translate(54.52994590810742 41.787084765177546)"/><use xlink:href="#n" transform="matrix(1,0,0,1,618.5567010309278,1938.1443298969073) translate(87.11235649739086 41.787084765177546)"/><use xlink:href="#o" transform="matrix(1,0,0,1,618.5567010309278,1938.1443298969073) translate(39.81695112638412 63.78021191294387)"/><use xlink:href="#p" transform="matrix(1,0,0,1,618.5567010309278,1938.1443298969073) translate(36.227794959908366 85.7733390607102)"/><path d="M783.5 2412.37c0 34.16-36.92 61.86-82.47 61.86s-82.47-27.7-82.47-61.86 36.92-61.86 82.47-61.86 82.48 27.7 82.48 61.87z" stroke="#6f7681" stroke-width="2" fill="#f6d297"/><use xlink:href="#q" transform="matrix(1,0,0,1,618.5567010309278,2350.5154639175253) translate(19.42748949980911 65.03708476517755)"/><use xlink:href="#r" transform="matrix(1,0,0,1,618.5567010309278,2350.5154639175253) translate(57.049991727122325 65.03708476517755)"/><path d="M772.5 1747l-8.26 5.5-1.1-1.66 8.27-5.5zm24.82-16.48l-16.54 11-1.1-1.67 16.53-11zm24.8-16.5l-16.53 11-1.12-1.66 16.54-11zm24.82-16.48l-16.54 11-1.1-1.67 16.53-11zm24.8-16.48l-16.53 11-1.1-1.68 16.54-11zm24.8-16.5l-16.53 11-1.1-1.67 16.54-11zm24.82-16.48l-16.54 11-1.1-1.68 16.53-11zm24.8-16.5l-16.53 11-1.1-1.67 16.53-10.98zm3.3-9.23h-2v-19.86h2zm0-29.8h-2v-19.85h2zm0-29.78h-2v-19.86h2zm0-29.8h-2v-19.84h2zm0-29.77h-2v-19.86h2zm0-29.8h-2v-19.85h2zm0-29.78h-2v-2.1h2zm0-18.58h-2v-1.28h2zm0-11.2h-2v-19.87h2zm0-29.8h-2v-19.85h2zm0-29.78h-2v-19.86h2zm0-29.8h-2v-19.85h2zm0-29.78h-2v-19.86h2zm0-29.8h-2v-19.84h2zm-2.12-29.7l-1.1 1.65-16.53-11 1.12-1.68zm-24.8-16.54l-1.1 1.67-16.52-11 1.1-1.67zm-24.77-16.52l-1.1 1.67-16.53-11.03 1.1-1.66zm-24.8-16.52l-1.1 1.66-16.52-11 1.1-1.68zm-24.77-16.52l-1.1 1.66-16.53-11.02 1.1-1.66zm-24.8-16.53l-1.1 1.67-16.52-11.02 1.1-1.66zm-24.77-16.52l-1.1 1.66-16.53-11.02 1.1-1.67zm-24.78-16.52l-1.12 1.67-8.26-5.5 1.1-1.67z" stroke="#ac6234" stroke-width=".05" fill="#ac6234"/><path d="M764.26 1752.5l-.6.4-1.6-1.34 1.1-.73z" fill="#ac6234"/><path d="M764.3 1752.5l-.64.43-1.64-1.37 1.14-.77zm-2.2-.94l1.56 1.3.57-.37-1.08-1.64zM785.17 1115l-.1 2-18.3-1 7.96 16.5-1.8.87-9.4-19.55z" stroke="#ac6234" stroke-width=".05" fill="#ac6234"/><use xlink:href="#s" transform="matrix(1,0,0,1,907.2546773577701,1425.0359372374432) translate(0.005000000000002558 10.996563573883165)"/><path d="M1113.4 2103.1c0 34.16-36.92 61.85-82.47 61.85s-82.48-27.7-82.48-61.86c0-34.17 36.93-61.86 82.48-61.86 45.55 0 82.47 27.7 82.47 61.85z" stroke="#6f7681" stroke-width="2" fill="#f6d297"/><use xlink:href="#t" transform="matrix(1,0,0,1,948.4536082474227,2041.2371134020616) translate(49.438944253531886 41.787084765177546)"/><use xlink:href="#o" transform="matrix(1,0,0,1,948.4536082474227,2041.2371134020616) translate(39.81695112638412 63.78021191294387)"/><use xlink:href="#p" transform="matrix(1,0,0,1,948.4536082474227,2041.2371134020616) translate(36.227794959908366 85.7733390607102)"/><path d="M1113.4 2309.28c0 34.16-36.92 61.85-82.47 61.85s-82.48-27.7-82.48-61.85c0-34.16 36.93-61.86 82.48-61.86 45.55 0 82.47 27.7 82.47 61.86z" stroke="#6f7681" stroke-width="2" fill="#f6d297"/><use xlink:href="#u" transform="matrix(1,0,0,1,948.4536082474227,2247.422680412371) translate(2.6271840397098263 65.03708476517755)"/><use xlink:href="#r" transform="matrix(1,0,0,1,948.4536082474227,2247.422680412371) translate(73.85029718722159 65.03708476517755)"/><path d="M952.4 2077.5l-.6 1.9-9.62-3 .6-1.9zm-19.24-6l-.6 1.9-19.2-6 .58-1.9zm-28.83-9.02l-.6 1.9-14.7-4.6h6.7zm-61.4-19.18h-6.7l-9.38-2.93.6-1.9zm-25.1-7.85l-.6 1.9-19.22-6 .6-1.9zm-28.83-9l-.6 1.9-9.6-3 .6-1.9z" stroke="#ac6234" stroke-width=".05" fill="#ac6234"/><path d="M779.4 2023.45l-.58 1.9-1.2-.37 1.02-1.78z" fill="#ac6234"/><path d="M779.44 2023.43l-.6 1.96-1.25-.4 1.03-1.83zm-1.77 1.54l1.13.35.58-1.86-.73-.23zM953.82 2079l-21.1 4.97-.47-1.95 17.82-4.2-12.26-13.6 1.5-1.33z" stroke="#ac6234" stroke-width=".05" fill="#ac6234"/><use xlink:href="#f" transform="matrix(1,0,0,1,821.7067583536248,2043.2989689602732) translate(0.005000000000002558 10.996563573883165)"/><path d="M789 2385.93l-9.62 3-.6-1.9 9.62-3zm28.83-9l-19.22 6-.6-1.9 19.23-6.02zm9.6-3l-.58-1.92 9.38-2.93h6.7zm76.9-24.04l-8.6 2.68h-6.7l14.7-4.6zm28.84-9.02l-19.23 6-.6-1.9 19.23-6zm19.22-6l-9.62 3-.6-1.92 9.6-3z" stroke="#ac6234" stroke-width=".05" fill="#ac6234"/><path d="M779.4 2388.93l-.77.24-1-1.78 1.18-.38z" fill="#ac6234"/><path d="M779.44 2388.94l-.82.26-1.02-1.83 1.23-.38zm-1.77-1.54l.97 1.74.74-.23-.58-1.85zM953.83 2333.37l-14.53 16.1-1.48-1.33 12.26-13.6-17.83-4.2.46-1.94z" stroke="#ac6234" stroke-width=".05" fill="#ac6234"/><use xlink:href="#f" transform="matrix(1,0,0,1,821.7067582486272,2352.577319574288) translate(0.005000000000002558 10.996563573883165)"/><path d="M789 2179.74l-9.62 3-.6-1.9 9.62-3zm28.83-9l-19.22 6-.6-1.9 19.23-6.02zm9.6-3l-.58-1.92 9.38-2.93h6.7zm76.9-24.04l-8.6 2.7h-6.7l14.7-4.6zm28.84-9l-19.23 6-.6-1.9 19.23-6.02zm19.22-6.02l-9.62 3-.6-1.9 9.6-3z" stroke="#ac6234" stroke-width=".05" fill="#ac6234"/><path d="M779.4 2182.74l-.77.24-1-1.78 1.18-.37z" fill="#ac6234"/><path d="M779.44 2182.76l-.82.25-1.02-1.82 1.23-.38zm-1.77-1.55l.97 1.75.74-.23-.58-1.86zM953.83 2127.2l-14.53 16.1-1.48-1.35 12.26-13.6-17.83-4.2.46-1.93z" stroke="#ac6234" stroke-width=".05" fill="#ac6234"/><use xlink:href="#v" transform="matrix(1,0,0,1,824.7804504975772,2146.391752563979) translate(0.005000000000002558 10.996563573883163)"/><path d="M952.4 2283.7l-.6 1.9-9.62-3 .6-1.92zm-19.24-6.02l-.6 1.9-19.2-6 .58-1.9zm-28.83-9l-.6 1.9-14.7-4.6h6.7zm-61.4-19.2h-6.7l-9.38-2.93.6-1.9zm-25.1-7.84l-.6 1.9-19.22-6 .6-1.9zm-28.83-9l-.6 1.9-9.6-3 .6-1.92z" stroke="#ac6234" stroke-width=".05" fill="#ac6234"/><path d="M779.4 2229.63l-.58 1.9-1.2-.36 1.02-1.78z" fill="#ac6234"/><path d="M779.44 2229.6l-.6 1.97-1.25-.4 1.03-1.8zm-1.77 1.56l1.13.35.58-1.85-.73-.23zM953.82 2285.18l-21.1 4.97-.47-1.94 17.82-4.2-12.26-13.6 1.5-1.32z" stroke="#ac6234" stroke-width=".05" fill="#ac6234"/><use xlink:href="#v" transform="matrix(1,0,0,1,824.7804506025748,2249.4845359705823) translate(0.005000000000002558 10.996563573883163)"/><path d="M1031.93 2039.24h-2v-10.04h2zm0-20.08h-2v-20.07h2zm0-30.1h-2v-20.08h2zm0-30.12h-2v-20.07h2zm0-30.1h-2v-20.08h2zm0-30.12h-2v-20.07h2zm0-30.1h-2v-20.08h2zm0-30.12h-2v-20.07h2zm0-30.1h-2v-20.08h2zm0-30.12h-2v-20.07h2zm0-30.1h-2v-20.08h2zm0-30.12h-2V1698h2zm0-30.1h-2v-20.08h2zm0-30.12h-2v-20.07h2zm0-30.1h-2v-20.08h2zm0-30.12h-2v-20.07h2zm0-30.1h-2v-20.08h2zm0-30.12h-2v-20.07h2zm0-30.1h-2v-17.26h2zm0-33.75h-2v-16.44h2zm0-26.48h-2V1427h2zm0-30.1h-2v-20.08h2zm0-30.12h-2v-20.07h2zm0-30.1h-2v-20.08h2zm0-30.12h-2v-20.07h2zm0-30.1h-2v-20.08h2zm0-30.12h-2v-20.06h2zm0-30.1h-2v-20.07h2zm0-41.12v11h-2v-9.6l-8.5-3.2.7-1.87zm-19.18-7.2l-.7 1.88-18.8-7.04.7-1.88zm-28.2-10.56l-.7 1.87-18.8-7.06.7-1.87zm-28.2-10.57l-.7 1.87-18.8-7.05.72-1.87zm-28.18-10.58l-.7 1.88-18.8-7.05.7-1.88zm-28.2-10.57l-.7 1.87-18.8-7.04.7-1.88zm-28.2-10.57l-.7 1.87-18.8-7.05.72-1.87zm-28.18-10.57l-.7 1.87-18.8-7.05.7-1.87zm-28.2-10.58l-.7 1.88-18.8-7.05.7-1.86zm-28.2-10.57l-.7 1.88-9.4-3.52.7-1.87z" stroke="#ac6234" stroke-width=".05" fill="#ac6234"/><path d="M1031.93 2040.27l-1-.03-1 .02v-1.05h2z" fill="#ac6234"/><path d="M1031.95 2040.3l-1.02-.04-1.03.03v-1.1h2.05zm-2-1.06v1l.98-.03.97.04v-1zM797.46 1098.37l-18.03 3.2 11.5 14.26-1.57 1.25-13.6-16.9 21.35-3.78z" stroke="#ac6234" stroke-width=".05" fill="#ac6234"/><use xlink:href="#v" transform="matrix(1,0,0,1,989.7289042252776,1473.545414661638) translate(0.005000000000002558 10.996563573883163)"/><path d="M1071.84 2243.03l-5.18 8.64-1.72-1.03 5.2-8.64zm15.57-25.94l-10.37 17.28-1.7-1.03 10.36-17.28zm15.57-25.94l-10.38 17.3-1.72-1.04 10.37-17.3zm15.56-25.94l-10.38 17.3-1.7-1.03 10.36-17.3zm15.56-25.93l-10.4 17.28-1.7-1.03 10.37-17.3zm15.55-25.95l-10.38 17.3-1.7-1.04 10.36-17.28zm6-9.98l-.8 1.34-1.73-1.02.52-.86v-18.6h2zm0-29.24h-2v-20.16h2zm0-30.24h-2v-20.18h2zm0-30.26h-2v-20.16h2zm0-30.25h-2v-20.17h2zm0-30.25h-2V1933h2zm0-30.25h-2v-20.16h2zm0-30.24h-2v-20.17h2zm0-30.25h-2v-20.15h2zm0-30.23h-2V1812h2zm0-30.25h-2v-20.16h2zm0-30.24h-2v-20.17h2zm0-30.25h-2v-20.16h2zm0-30.24h-2V1691h2zm0-30.26h-2v-20.16h2zm0-30.25h-2v-20.17h2zm0-30.25h-2v-20.16h2zm0-30.25h-2v-20.16h2zm0-30.24h-2v-15.63h2zm0-32.13h-2v-18.28h2zm0-28.36h-2v-20.16h2zm0-30.25h-2v-20.16h2zm0-30.24h-2v-20.17h2zm0-30.25h-2v-20.16h2zm0-30.24h-2v-20.18h2zm0-30.26h-2v-20.16h2zm0-30.24h-2v-20.17h2zm0-30.25h-2v-20.16h2zm0-30.24h-2v-20.16h2zm0-30.24h-2v-20.16h2zm0-30.25h-2v-20.15h2zm0-30.23h-2v-20.16h2zm0-30.25h-2v-20.16h2zm0-30.24h-2v-20.17h2zm0-30.25h-2v-20.16h2zm-5.96-27.6l-.77 1.86-18.66-7.64.76-1.85zm-28-11.44l-.76 1.84-18.67-7.63.76-1.85zm-28-11.46l-.76 1.85-18.66-7.65.76-1.85zm-28-11.46l-.75 1.86-18.66-7.64.74-1.85zm-28-11.45l-.74 1.85-18.67-7.63.75-1.85zm-27.98-11.45l-.76 1.85-18.66-7.63.76-1.85zm-28-11.45l-.75 1.85-18.66-7.63.76-1.86zm-28-11.45l-.75 1.85-18.66-7.64.77-1.86zm-27.98-11.45l-.76 1.85-18.66-7.64.76-1.85zm-28-11.46l-.75 1.85-18.67-7.63.75-1.86zm-28-11.45l-.75 1.85-18.67-7.63.76-1.85zm-27.98-11.45l-.76 1.85-18.66-7.63.76-1.87zm-28-11.45l-.75 1.85-18.65-7.64.75-1.85zm-28-11.45l-.75 1.85-9.32-3.82.76-1.85z" stroke="#ac6234" stroke-width=".05" fill="#ac6234"/><path d="M1066.67 2251.65l-.42.7-1.93-.67.63-1.06z" fill="#ac6234"/><path d="M1066.7 2251.64l-.44.74-1.98-.68.67-1.1zm-2.34.03l1.88.65.4-.66-1.68-1zM796.13 894.8L778 897.48l11.07 14.6-1.6 1.2-13.1-17.28 21.47-3.16z" stroke="#ac6234" stroke-width=".05" fill="#ac6234"/><use xlink:href="#v" transform="matrix(1,0,0,1,1113.4402443680794,1527.8353605502605) translate(0.005000000000002558 10.996563573883163)"/><path d="M783.5 1278.35c0 34.16-36.92 61.86-82.47 61.86s-82.47-27.7-82.47-61.85c0-34.16 36.92-61.86 82.47-61.86s82.48 27.7 82.48 61.85z" stroke="#6f7681" stroke-width="2" fill="#f6d297"/><use xlink:href="#w" transform="matrix(1,0,0,1,618.5567010309278,1216.494845360825) translate(31.77316851215478 65.03708476517755)"/><use xlink:href="#x" transform="matrix(1,0,0,1,618.5567010309278,1216.494845360825) translate(77.59218340333462 65.03708476517755)"/><path d="M753.58 1733.18l-6.63 7.73-1.52-1.3 6.64-7.72zm19.9-23.2l-13.27 15.46-1.5-1.3 13.25-15.47zm19.88-23.2l-13.26 15.46-1.5-1.3 13.25-15.47zm19.9-23.2l-13.27 15.46-1.52-1.3 13.25-15.48zm11.75-13.73l-5.12 5.98-1.5-1.3 4.63-5.4v-12.52h2zm0-23.43h-2v-20.37h2zm0-30.56h-2v-20.38h2zm0-38.83h-2v-12.1h2zm0-22.3h-2v-20.37h2zm0-30.56h-2v-20.37h2zm0-40.55v10h-2v-9.4l-5.73-8.66 1.67-1.1zm-11.7-17.65l-1.66 1.1-11.25-16.98 1.65-1.12zm-16.87-25.48l-1.67 1.1-11.26-17 1.67-1.1zm-16.9-25.5l-1.65 1.12-11.26-16.98 1.67-1.1zm-16.87-25.46l-1.67 1.1-11.26-16.98 1.66-1.1zm-16.88-25.48l-1.67 1.1-5.62-8.5 1.67-1.1z" stroke="#ac6234" stroke-width=".05" fill="#ac6234"/><path d="M746.97 1740.9l-.5.58-1.86-.9.85-1z" fill="#ac6234"/><path d="M747 1740.9l-.52.6-1.9-.92.87-1.02zm-2.35-.34l1.82.9.46-.56-1.48-1.27zM757.83 1344.07l-.87 1.8-16.48-8 .94 18.3-2 .1-1.1-21.66z" stroke="#ac6234" stroke-width=".05" fill="#ac6234"/><use xlink:href="#s" transform="matrix(1,0,0,1,782.8062237495228,1557.0317361727796) translate(0.005000000000002558 10.996563573883165)"/><path d="M759.98 808.1l-6.96 7-1.4-1.42 6.94-7zm20.88-21l-13.92 14-1.42-1.42 13.92-14zm20.88-21l-13.92 14-1.42-1.42 13.92-14zm20.87-21l-13.9 14-1.42-1.42 13.9-14zm2.4-9.72h-2v-16.02h2zm0-32.52h-2v-16.84h2zm-3.3-26.17l-1.4 1.4-13.97-13.95 1.4-1.42zm-20.94-20.95l-1.4 1.42-13.97-13.96 1.4-1.4zm-20.94-20.94l-1.4 1.43-13.97-13.96 1.4-1.4zm-20.94-20.92l-1.4 1.4-7-6.97 1.42-1.4z" stroke="#ac6234" stroke-width=".05" fill="#ac6234"/><path d="M751.92 606.9l-1.4 1.43-.94-.93 1.8-1z" fill="#ac6234"/><path d="M751.96 606.9l-1.45 1.46-.96-.96 1.86-1.04zm-2.34.5l.9.9 1.37-1.4-.5-.48zM758.3 795.14l-4.5 17.75 17.72-4.6.5 1.92-21 5.46 5.34-21.03z" stroke="#ac6234" stroke-width=".05" fill="#ac6234"/><use xlink:href="#v" transform="matrix(1,0,0,1,782.8062237495228,702.8626250262224) translate(0.005000000000002558 10.996563573883163)"/><path d="M769.66 1021.8l-7.54 5.66-1.2-1.6 7.54-5.67zm22.6-17.02l-15.06 11.34-1.2-1.6 15.07-11.34zm22.62-17L799.8 999.1l-1.2-1.6 15.08-11.33zm22.6-17.02l-15.06 11.34-1.2-1.6 15.07-11.33zm22.62-17l-15.07 11.33-1.2-1.6 15.07-11.34zm31.23-23.5l-8.8 6.62-2.16-1.8-1.67-.44-1.78.34-.7.4-1.2 1.43-.42 1.7.34 1.76.95 1.62-8.26 6.2-1.2-1.6 6.82-5.13-.22-.37-.5-2.56.66-2.55 1.7-2.03 1.3-.76 2.56-.5 2.55.66 1.3 1.1 7.53-5.67zm24.48-18.4l-16.3 12.27-1.2-1.6 16.3-12.28zm24.5-18.42l-16.33 12.27-1.2-1.6 16.32-12.26zm8.42-7h-2V866h2zm0-30.64h-2v-20.42h2zm0-30.63h-2v-20.42h2zm0-30.64h-2V774.1h2zm0-30.63h-2v-20.42h2zm0-30.63h-2v-17.72h2zm0-34.2h-2V682.2h2zm0-27.07h-2v-20.42h2zm0-30.63h-2v-20.42h2zm0-30.63h-2V590.3h2zm0-30.64h-2v-20.42h2zm0-30.63h-2v-20.42h2zm0-34.54v3.9h-2V516l-13.74-9.16 1.1-1.66zM925.6 499.5l-1.12 1.68-17-11.33 1.12-1.67zm-25.5-16.98l-1.1 1.66-17-11.32 1.1-1.67zm-25.5-17l-1.1 1.67-17-11.34 1.12-1.66zm-25.47-16.98l-1.1 1.66-17-11.33 1.1-1.66zm-25.5-17l-1.1 1.67-17-11.32 1.12-1.67zm-25.48-17l-1.1 1.67-17-11.3 1.1-1.68zm-25.5-16.98l-1.1 1.66-8.5-5.66 1.12-1.67z" stroke="#ac6234" stroke-width=".05" fill="#ac6234"/><path d="M764.2 391.9l-1.12 1.67-1.1-.73 1.6-1.33z" fill="#ac6234"/><path d="M764.22 391.9l-1.14 1.7-1.15-.76 1.65-1.36zm-2.2.94l1.05.7 1.08-1.62-.57-.38zM770.2 1008.47l-7 16.92 18.2-2.03.23 2-21.56 2.4 8.28-20.06z" stroke="#ac6234" stroke-width=".05" fill="#ac6234"/><use xlink:href="#v" transform="matrix(1,0,0,1,906.5175639557083,699.0565573842142) translate(0.005000000000002558 10.996563573883163)"/><path d="M782.77 350.5c0 34.18-36.93 61.87-82.48 61.87-45.55 0-82.48-27.7-82.48-61.86 0-34.15 36.92-61.84 82.47-61.84 45.54 0 82.47 27.7 82.47 61.85z" stroke="#6f7681" stroke-width="2" fill="#f6d297"/><use xlink:href="#q" transform="matrix(1,0,0,1,617.819587628866,288.65979381443293) translate(19.529309532900623 65.03708476517755)"/><use xlink:href="#y" transform="matrix(1,0,0,1,617.819587628866,288.65979381443293) translate(57.15181176021384 65.03708476517755)"/><path d="M782.77 556.7c0 34.16-36.93 61.86-82.48 61.86-45.55 0-82.48-27.7-82.48-61.86s36.92-61.86 82.47-61.86c45.54 0 82.47 27.7 82.47 61.86z" stroke="#6f7681" stroke-width="2" fill="#f6d297"/><use xlink:href="#i" transform="matrix(1,0,0,1,617.819587628866,494.8453608247423) translate(22.991190658011984 65.03708476517755)"/><use xlink:href="#z" transform="matrix(1,0,0,1,617.819587628866,494.8453608247423) translate(63.66829387807052 65.03708476517755)"/><path d="M782.77 1587.63c0 34.16-36.93 61.85-82.48 61.85-45.55 0-82.48-27.7-82.48-61.85 0-34.16 36.92-61.86 82.47-61.86 45.54 0 82.47 27.7 82.47 61.86z" stroke="#6f7681" stroke-width="2" fill="#f6d297"/><use xlink:href="#A" transform="matrix(1,0,0,1,617.819587628866,1525.7731958762888) translate(37.70418543973528 65.03708476517755)"/><use xlink:href="#B" transform="matrix(1,0,0,1,617.819587628866,1525.7731958762888) translate(84.54140066183021 65.03708476517755)"/><path d="M782.77 1793.8c0 34.18-36.93 61.87-82.48 61.87-45.55 0-82.48-27.7-82.48-61.86 0-34.15 36.92-61.84 82.47-61.84 45.54 0 82.47 27.7 82.47 61.85z" stroke="#6f7681" stroke-width="2" fill="#f6d297"/><use xlink:href="#w" transform="matrix(1,0,0,1,617.819587628866,1731.9587628865984) translate(38.21328560519283 65.03708476517755)"/><use xlink:href="#B" transform="matrix(1,0,0,1,617.819587628866,1731.9587628865984) translate(84.03230049637267 65.03708476517755)"/><path d="M311.28 1277.45l59.85.9L516.2 350.52h99.62M311.3 1277.45l-4.02-.06" stroke="#ac6234" stroke-width="2" fill="none"/><path d="M616.82 350.5l.03 1h-1.06v-2h1.05z" stroke="#ac6234" stroke-width=".05" fill="#ac6234"/><path d="M311.28 1277.45l59.85.9L516.2 556.7h99.62M311.3 1277.45l-4.02-.06" stroke="#ac6234" stroke-width="2" fill="none"/><path d="M616.82 556.7l.03 1h-1.06v-2h1.05z" stroke="#ac6234" stroke-width=".05" fill="#ac6234"/><path d="M311.28 1277.45l59.85.9L516.2 1793.8h99.62M311.3 1277.45l-4.02-.06" stroke="#ac6234" stroke-width="2" fill="none"/><path d="M616.82 1793.8l.03 1h-1.06v-2h1.05z" stroke="#ac6234" stroke-width=".05" fill="#ac6234"/><path d="M311.28 1277.45l59.85.9 145.07 309.28h99.62M311.3 1277.45l-4.02-.06" stroke="#ac6234" stroke-width="2" fill="none"/><path d="M616.82 1587.63l.03 1h-1.06v-2h1.05z" stroke="#ac6234" stroke-width=".05" fill="#ac6234"/><path d="M311.28 1277.45l59.85.9L516.2 2206.2h100.36M311.3 1277.45l-4.02-.06" stroke="#ac6234" stroke-width="2" fill="none"/><path d="M617.56 2206.18l.02 1h-1.05v-2h1.06z" stroke="#ac6234" stroke-width=".05" fill="#ac6234"/><path d="M616.56 2000H516.2l-145.07-721.65-59.85-.9" stroke="#ac6234" stroke-width="2" fill="none"/><path d="M617.56 2000l.02 1h-1.05v-2h1.06z" stroke="#ac6234" stroke-width=".05" fill="#ac6234"/><path d="M311.3 1277.45l-4.02-.06M616.56 2412.37H516.2L371.13 1278.35l-59.85-.9" stroke="#ac6234" stroke-width="2" fill="none"/><path d="M617.56 2412.37l.02 1h-1.05v-2h1.06z" stroke="#ac6234" stroke-width=".05" fill="#ac6234"/><path d="M311.3 1277.45l-4.02-.06M311.28 1277.45l59.85.9L516.2 865.98h100.36M311.3 1277.45l-4.02-.06" stroke="#ac6234" stroke-width="2" fill="none"/><path d="M617.56 865.98l.02 1h-1.05v-2h1.06z" stroke="#ac6234" stroke-width=".05" fill="#ac6234"/><path d="M311.28 1277.45l59.85.9 145.07-206.18h100.36M311.3 1277.45l-4.02-.06" stroke="#ac6234" stroke-width="2" fill="none"/><path d="M617.56 1072.16l.02 1h-1.05v-2h1.06z" stroke="#ac6234" stroke-width=".05" fill="#ac6234"/><path d="M311.28 1277.45l61.98.9h243.3M311.3 1277.45l-4.02-.05" stroke="#ac6234" stroke-width="2" fill="none"/><path d="M617.56 1278.35l.02 1h-1.05v-2h1.06z" stroke="#ac6234" stroke-width=".05" fill="#ac6234"/><defs><path fill="#855e45" d="M24-248c93 1 206-16 204 79-1 75-69 88-152 82V0H24v-248zm52 121c47 0 100 7 100-41 0-47-54-39-100-39v80" id="C"/><path fill="#855e45" d="M25 0v-261h50V0H25" id="D"/><path fill="#855e45" d="M85 4C-2 5 27-109 22-190h50c7 57-23 150 33 157 60-5 35-97 40-157h50l1 190h-47c-2-12 1-28-3-38-12 25-28 42-61 42" id="E"/><path fill="#855e45" d="M195-6C206 82 75 100 31 46c-4-6-6-13-8-21l49-6c3 16 16 24 34 25 40 0 42-37 40-79-11 22-30 35-61 35-53 0-70-43-70-97 0-56 18-96 73-97 30 0 46 14 59 34l2-30h47zm-90-29c32 0 41-27 41-63 0-35-9-62-40-62-32 0-39 29-40 63 0 36 9 62 39 62" id="F"/><path fill="#855e45" d="M25-224v-37h50v37H25zM25 0v-190h50V0H25" id="G"/><path fill="#855e45" d="M135-194c87-1 58 113 63 194h-50c-7-57 23-157-34-157-59 0-34 97-39 157H25l-1-190h47c2 12-1 28 3 38 12-26 28-41 61-42" id="H"/><g id="a"><use transform="matrix(0.0636375206821942,0,0,0.0636375206821942,0,0)" xlink:href="#C"/><use transform="matrix(0.0636375206821942,0,0,0.0636375206821942,15.27300496372661,0)" xlink:href="#D"/><use transform="matrix(0.0636375206821942,0,0,0.0636375206821942,21.636757031946033,0)" xlink:href="#E"/><use transform="matrix(0.0636375206821942,0,0,0.0636375206821942,35.57337406134656,0)" xlink:href="#F"/><use transform="matrix(0.0636375206821942,0,0,0.0636375206821942,49.50999109074709,0)" xlink:href="#G"/><use transform="matrix(0.0636375206821942,0,0,0.0636375206821942,55.87374315896651,0)" xlink:href="#H"/></g><path fill="#855e45" d="M238-95c0 69-44 99-111 99C63 4 22-25 22-93v-155h51v151c-1 38 19 59 55 60 90 1 49-130 58-211h52v153" id="I"/><path fill="#855e45" d="M137-138c1-29-70-34-71-4 15 46 118 7 119 86 1 83-164 76-172 9l43-7c4 19 20 25 44 25 33 8 57-30 24-41C81-84 22-81 20-136c-2-80 154-74 161-7" id="J"/><path fill="#855e45" d="M185-48c-13 30-37 53-82 52C43 2 14-33 14-96s30-98 90-98c62 0 83 45 84 108H66c0 31 8 55 39 56 18 0 30-7 34-22zm-45-69c5-46-57-63-70-21-2 6-4 13-4 21h74" id="K"/><path fill="#855e45" d="M135-150c-39-12-60 13-60 57V0H25l-1-190h47c2 13-1 29 3 40 6-28 27-53 61-41v41" id="L"/><g id="b"><use transform="matrix(0.050910016545755374,0,0,0.050910016545755374,0,0)" xlink:href="#I"/><use transform="matrix(0.050910016545755374,0,0,0.050910016545755374,13.185694285350642,0)" xlink:href="#J"/><use transform="matrix(0.050910016545755374,0,0,0.050910016545755374,23.367697594501717,0)" xlink:href="#K"/><use transform="matrix(0.050910016545755374,0,0,0.050910016545755374,33.54970090365279,0)" xlink:href="#L"/></g><path fill="#855e45" d="M230 0l2-204L168 0h-37L68-204 70 0H24v-248h70l56 185 57-185h69V0h-46" id="M"/><path fill="#855e45" d="M24 0v-248h52V0H24" id="N"/><path fill="#855e45" d="M24-248c120-7 223 5 221 122C244-46 201 0 124 0H24v-248zM76-40c74 7 117-18 117-86 0-67-45-88-117-82v168" id="O"/><g id="c"><use transform="matrix(0.0636375206821942,0,0,0.0636375206821942,0,0)" xlink:href="#M"/><use transform="matrix(0.0636375206821942,0,0,0.0636375206821942,19.02761868397607,0)" xlink:href="#N"/><use transform="matrix(0.0636375206821942,0,0,0.0636375206821942,25.391370752195492,0)" xlink:href="#O"/><use transform="matrix(0.0636375206821942,0,0,0.0636375206821942,41.87348860888379,0)" xlink:href="#N"/></g><path fill="#855e45" d="M135-194c53 0 70 44 70 98 0 56-19 98-73 100-31 1-45-17-59-34 3 33 2 69 2 105H25l-1-265h48c2 10 0 23 3 31 11-24 29-35 60-35zM114-30c33 0 39-31 40-66 0-38-9-64-40-64-56 0-55 130 0 130" id="P"/><path fill="#855e45" d="M115-3C79 11 28 4 28-45v-112H4v-33h27l15-45h31v45h36v33H77v99c-1 23 16 31 38 25v30" id="Q"/><g id="d"><use transform="matrix(0.0636375206821942,0,0,0.0636375206821942,0,0)" xlink:href="#N"/><use transform="matrix(0.0636375206821942,0,0,0.0636375206821942,6.363752068219421,0)" xlink:href="#H"/><use transform="matrix(0.0636375206821942,0,0,0.0636375206821942,20.300369097619953,0)" xlink:href="#P"/><use transform="matrix(0.0636375206821942,0,0,0.0636375206821942,34.23698612702049,0)" xlink:href="#E"/><use transform="matrix(0.0636375206821942,0,0,0.0636375206821942,48.17360315642102,0)" xlink:href="#Q"/></g><path fill="#855e45" d="M186 0v-106H76V0H24v-248h52v99h110v-99h50V0h-50" id="R"/><path fill="#855e45" d="M110-194c64 0 96 36 96 99 0 64-35 99-97 99-61 0-95-36-95-99 0-62 34-99 96-99zm-1 164c35 0 45-28 45-65 0-40-10-65-43-65-34 0-45 26-45 65 0 36 10 65 43 65" id="S"/><g id="e"><use transform="matrix(0.0636375206821942,0,0,0.0636375206821942,0,0)" xlink:href="#R"/><use transform="matrix(0.0636375206821942,0,0,0.0636375206821942,16.4821178566883,0)" xlink:href="#S"/><use transform="matrix(0.0636375206821942,0,0,0.0636375206821942,30.418734886088835,0)" xlink:href="#J"/><use transform="matrix(0.0636375206821942,0,0,0.0636375206821942,43.14623902252768,0)" xlink:href="#Q"/></g><path fill="#ac6234" d="M18-100v-36l175-74v27L42-118l151 64v27" id="T"/><path fill="#ac6234" d="M115-194c55 1 70 41 70 98S169 2 115 4C84 4 66-9 55-30l1 105H24l-1-265h31l2 30c10-21 28-34 59-34zm-8 174c40 0 45-34 45-75s-6-73-45-74c-42 0-51 32-51 76 0 43 10 73 51 73" id="U"/><path fill="#ac6234" d="M114-163C36-179 61-72 57 0H25l-1-190h30c1 12-1 29 2 39 6-27 23-49 58-41v29" id="V"/><path fill="#ac6234" d="M100-194c63 0 86 42 84 106H49c0 40 14 67 53 68 26 1 43-12 49-29l28 8c-11 28-37 45-77 45C44 4 14-33 15-96c1-61 26-98 85-98zm52 81c6-60-76-77-97-28-3 7-6 17-6 28h103" id="W"/><path fill="#ac6234" d="M96-169c-40 0-48 33-48 73s9 75 48 75c24 0 41-14 43-38l32 2c-6 37-31 61-74 61-59 0-76-41-82-99-10-93 101-131 147-64 4 7 5 14 7 22l-32 3c-4-21-16-35-41-35" id="X"/><path fill="#ac6234" d="M85-194c31 0 48 13 60 33l-1-100h32l1 261h-30c-2-10 0-23-3-31C134-8 116 4 85 4 32 4 16-35 15-94c0-66 23-100 70-100zm9 24c-40 0-46 34-46 75 0 40 6 74 45 74 42 0 51-32 51-76 0-42-9-74-50-73" id="Y"/><path fill="#ac6234" d="M135-143c-3-34-86-38-87 0 15 53 115 12 119 90S17 21 10-45l28-5c4 36 97 45 98 0-10-56-113-15-118-90-4-57 82-63 122-42 12 7 21 19 24 35" id="Z"/><path fill="#ac6234" d="M18-27v-27l151-64-151-65v-27l175 74v36" id="aa"/><g id="f"><use transform="matrix(0.03818251240931655,0,0,0.03818251240931655,0,0)" xlink:href="#T"/><use transform="matrix(0.03818251240931655,0,0,0.03818251240931655,8.018327605956475,0)" xlink:href="#T"/><use transform="matrix(0.03818251240931655,0,0,0.03818251240931655,16.03665521191295,0)" xlink:href="#U"/><use transform="matrix(0.03818251240931655,0,0,0.03818251240931655,23.67315769377626,0)" xlink:href="#V"/><use transform="matrix(0.03818251240931655,0,0,0.03818251240931655,28.21687667048493,0)" xlink:href="#W"/><use transform="matrix(0.03818251240931655,0,0,0.03818251240931655,35.85337915234824,0)" xlink:href="#X"/><use transform="matrix(0.03818251240931655,0,0,0.03818251240931655,42.72623138602522,0)" xlink:href="#W"/><use transform="matrix(0.03818251240931655,0,0,0.03818251240931655,50.36273386788853,0)" xlink:href="#Y"/><use transform="matrix(0.03818251240931655,0,0,0.03818251240931655,57.99923634975183,0)" xlink:href="#W"/><use transform="matrix(0.03818251240931655,0,0,0.03818251240931655,65.63573883161514,0)" xlink:href="#Z"/><use transform="matrix(0.03818251240931655,0,0,0.03818251240931655,72.50859106529212,0)" xlink:href="#aa"/><use transform="matrix(0.03818251240931655,0,0,0.03818251240931655,80.5269186712486,0)" xlink:href="#aa"/></g><path fill="#ac6234" d="M240 0l2-218c-23 76-54 145-80 218h-23L58-218 59 0H30v-248h44l77 211c21-75 51-140 76-211h43V0h-30" id="ab"/><path fill="#ac6234" d="M100-194c62-1 85 37 85 99 1 63-27 99-86 99S16-35 15-95c0-66 28-99 85-99zM99-20c44 1 53-31 53-75 0-43-8-75-51-75s-53 32-53 75 10 74 51 75" id="ac"/><path fill="#ac6234" d="M24-231v-30h32v30H24zM24 0v-190h32V0H24" id="ad"/><path fill="#ac6234" d="M101-234c-31-9-42 10-38 44h38v23H63V0H32v-167H5v-23h27c-7-52 17-82 69-68v24" id="ae"/><path fill="#ac6234" d="M179-190L93 31C79 59 56 82 12 73V49c39 6 53-20 64-50L1-190h34L92-34l54-156h33" id="af"/><g id="g"><use transform="matrix(0.050910016545755374,0,0,0.050910016545755374,0,0)" xlink:href="#ab"/><use transform="matrix(0.050910016545755374,0,0,0.050910016545755374,15.222094947180857,0)" xlink:href="#ac"/><use transform="matrix(0.050910016545755374,0,0,0.050910016545755374,25.40409825633193,0)" xlink:href="#Y"/><use transform="matrix(0.050910016545755374,0,0,0.050910016545755374,35.586101565483006,0)" xlink:href="#ad"/><use transform="matrix(0.050910016545755374,0,0,0.050910016545755374,39.60799287259768,0)" xlink:href="#ae"/><use transform="matrix(0.050910016545755374,0,0,0.050910016545755374,44.69899452717321,0)" xlink:href="#af"/></g><path fill="#ac6234" d="M30-248c87 1 191-15 191 75 0 78-77 80-158 76V0H30v-248zm33 125c57 0 124 11 124-50 0-59-68-47-124-48v98" id="ag"/><path fill="#ac6234" d="M141-36C126-15 110 5 73 4 37 3 15-17 15-53c-1-64 63-63 125-63 3-35-9-54-41-54-24 1-41 7-42 31l-33-3c5-37 33-52 76-52 45 0 72 20 72 64v82c-1 20 7 32 28 27v20c-31 9-61-2-59-35zM48-53c0 20 12 33 32 33 41-3 63-29 60-74-43 2-92-5-92 41" id="ah"/><path fill="#ac6234" d="M210-169c-67 3-38 105-44 169h-31v-121c0-29-5-50-35-48C34-165 62-65 56 0H25l-1-190h30c1 10-1 24 2 32 10-44 99-50 107 0 11-21 27-35 58-36 85-2 47 119 55 194h-31v-121c0-29-5-49-35-48" id="ai"/><path fill="#ac6234" d="M59-47c-2 24 18 29 38 22v24C64 9 27 4 27-40v-127H5v-23h24l9-43h21v43h35v23H59v120" id="aj"/><g id="h"><use transform="matrix(0.050910016545755374,0,0,0.050910016545755374,0,0)" xlink:href="#ag"/><use transform="matrix(0.050910016545755374,0,0,0.050910016545755374,12.21840397098129,0)" xlink:href="#ah"/><use transform="matrix(0.050910016545755374,0,0,0.050910016545755374,22.400407280132363,0)" xlink:href="#V"/><use transform="matrix(0.050910016545755374,0,0,0.050910016545755374,28.458699249077252,0)" xlink:href="#ah"/><use transform="matrix(0.050910016545755374,0,0,0.050910016545755374,38.64070255822833,0)" xlink:href="#ai"/><use transform="matrix(0.050910016545755374,0,0,0.050910016545755374,53.86279750540918,0)" xlink:href="#W"/><use transform="matrix(0.050910016545755374,0,0,0.050910016545755374,64.04480081456026,0)" xlink:href="#aj"/><use transform="matrix(0.050910016545755374,0,0,0.050910016545755374,69.1358024691358,0)" xlink:href="#W"/><use transform="matrix(0.050910016545755374,0,0,0.050910016545755374,79.31780577828687,0)" xlink:href="#V"/></g><path fill="#ac6234" d="M24 0v-261h32V0H24" id="ak"/><g id="i"><use transform="matrix(0.050910016545755374,0,0,0.050910016545755374,0,0)" xlink:href="#ag"/><use transform="matrix(0.050910016545755374,0,0,0.050910016545755374,12.21840397098129,0)" xlink:href="#ak"/><use transform="matrix(0.050910016545755374,0,0,0.050910016545755374,16.240295278095964,0)" xlink:href="#ah"/><use transform="matrix(0.050910016545755374,0,0,0.050910016545755374,26.422298587247038,0)" xlink:href="#af"/></g><path fill="#ac6234" d="M185-189c-5-48-123-54-124 2 14 75 158 14 163 119 3 78-121 87-175 55-17-10-28-26-33-46l33-7c5 56 141 63 141-1 0-78-155-14-162-118-5-82 145-84 179-34 5 7 8 16 11 25" id="al"/><path fill="#ac6234" d="M117-194c89-4 53 116 60 194h-32v-121c0-31-8-49-39-48C34-167 62-67 57 0H25l-1-190h30c1 10-1 24 2 32 11-22 29-35 61-36" id="am"/><path fill="#ac6234" d="M106-169C34-169 62-67 57 0H25v-261h32l-1 103c12-21 28-36 61-36 89 0 53 116 60 194h-32v-121c2-32-8-49-39-48" id="an"/><path fill="#ac6234" d="M9 0v-24l116-142H16v-24h144v24L44-24h123V0H9" id="ao"/><g id="j"><use transform="matrix(0.050910016545755374,0,0,0.050910016545755374,0,0)" xlink:href="#al"/><use transform="matrix(0.050910016545755374,0,0,0.050910016545755374,12.21840397098129,0)" xlink:href="#af"/><use transform="matrix(0.050910016545755374,0,0,0.050910016545755374,21.382206949217256,0)" xlink:href="#am"/><use transform="matrix(0.050910016545755374,0,0,0.050910016545755374,31.56421025836833,0)" xlink:href="#aj"/><use transform="matrix(0.050910016545755374,0,0,0.050910016545755374,36.65521191294387,0)" xlink:href="#an"/><use transform="matrix(0.050910016545755374,0,0,0.050910016545755374,46.83721522209494,0)" xlink:href="#W"/><use transform="matrix(0.050910016545755374,0,0,0.050910016545755374,57.019218531246004,0)" xlink:href="#Z"/><use transform="matrix(0.050910016545755374,0,0,0.050910016545755374,66.18302150948197,0)" xlink:href="#ad"/><use transform="matrix(0.050910016545755374,0,0,0.050910016545755374,70.20491281659665,0)" xlink:href="#ao"/><use transform="matrix(0.050910016545755374,0,0,0.050910016545755374,79.36871579483261,0)" xlink:href="#W"/><use transform="matrix(0.050910016545755374,0,0,0.050910016545755374,89.55071910398368,0)" xlink:href="#V"/></g><path fill="#ac6234" d="M33 0v-248h34V0H33" id="ap"/><g id="k"><use transform="matrix(0.050910016545755374,0,0,0.050910016545755374,0,0)" xlink:href="#ap"/><use transform="matrix(0.050910016545755374,0,0,0.050910016545755374,5.091001654575537,0)" xlink:href="#am"/><use transform="matrix(0.050910016545755374,0,0,0.050910016545755374,15.273004963726612,0)" xlink:href="#ad"/><use transform="matrix(0.050910016545755374,0,0,0.050910016545755374,19.294896270841285,0)" xlink:href="#aj"/><use transform="matrix(0.050910016545755374,0,0,0.050910016545755374,24.38589792541682,0)" xlink:href="#ad"/><use transform="matrix(0.050910016545755374,0,0,0.050910016545755374,28.407789232531492,0)" xlink:href="#ah"/><use transform="matrix(0.050910016545755374,0,0,0.050910016545755374,38.58979254168257,0)" xlink:href="#aj"/><use transform="matrix(0.050910016545755374,0,0,0.050910016545755374,43.680794196258105,0)" xlink:href="#W"/></g><path fill="#ac6234" d="M115-194c53 0 69 39 70 98 0 66-23 100-70 100C84 3 66-7 56-30L54 0H23l1-261h32v101c10-23 28-34 59-34zm-8 174c40 0 45-34 45-75 0-40-5-75-45-74-42 0-51 32-51 76 0 43 10 73 51 73" id="aq"/><path fill="#ac6234" d="M143 0L79-87 56-68V0H24v-261h32v163l83-92h37l-77 82L181 0h-38" id="ar"/><g id="l"><use transform="matrix(0.050910016545755374,0,0,0.050910016545755374,0,0)" xlink:href="#ag"/><use transform="matrix(0.050910016545755374,0,0,0.050910016545755374,12.21840397098129,0)" xlink:href="#ak"/><use transform="matrix(0.050910016545755374,0,0,0.050910016545755374,16.240295278095964,0)" xlink:href="#ah"/><use transform="matrix(0.050910016545755374,0,0,0.050910016545755374,26.422298587247038,0)" xlink:href="#af"/><use transform="matrix(0.050910016545755374,0,0,0.050910016545755374,35.586101565483006,0)" xlink:href="#aq"/><use transform="matrix(0.050910016545755374,0,0,0.050910016545755374,45.768104874634076,0)" xlink:href="#ah"/><use transform="matrix(0.050910016545755374,0,0,0.050910016545755374,55.95010818378515,0)" xlink:href="#X"/><use transform="matrix(0.050910016545755374,0,0,0.050910016545755374,65.11391116202111,0)" xlink:href="#ar"/></g><g id="m"><use transform="matrix(0.050910016545755374,0,0,0.050910016545755374,0,0)" xlink:href="#al"/><use transform="matrix(0.050910016545755374,0,0,0.050910016545755374,12.21840397098129,0)" xlink:href="#W"/><use transform="matrix(0.050910016545755374,0,0,0.050910016545755374,22.400407280132363,0)" xlink:href="#aj"/></g><path fill="#ac6234" d="M232-93c-1 65-40 97-104 97C67 4 28-28 28-90v-158h33c8 89-33 224 67 224 102 0 64-133 71-224h33v155" id="as"/><g id="n"><use transform="matrix(0.050910016545755374,0,0,0.050910016545755374,0,0)" xlink:href="#as"/><use transform="matrix(0.050910016545755374,0,0,0.050910016545755374,13.185694285350642,0)" xlink:href="#U"/></g><g id="o"><use transform="matrix(0.050910016545755374,0,0,0.050910016545755374,0,0)" xlink:href="#ag"/><use transform="matrix(0.050910016545755374,0,0,0.050910016545755374,12.21840397098129,0)" xlink:href="#ah"/><use transform="matrix(0.050910016545755374,0,0,0.050910016545755374,22.400407280132363,0)" xlink:href="#V"/><use transform="matrix(0.050910016545755374,0,0,0.050910016545755374,28.458699249077252,0)" xlink:href="#ah"/><use transform="matrix(0.050910016545755374,0,0,0.050910016545755374,38.64070255822833,0)" xlink:href="#ai"/><use transform="matrix(0.050910016545755374,0,0,0.050910016545755374,53.86279750540918,0)" xlink:href="#W"/><use transform="matrix(0.050910016545755374,0,0,0.050910016545755374,64.04480081456026,0)" xlink:href="#aj"/><use transform="matrix(0.050910016545755374,0,0,0.050910016545755374,69.1358024691358,0)" xlink:href="#W"/><use transform="matrix(0.050910016545755374,0,0,0.050910016545755374,79.31780577828687,0)" xlink:href="#V"/></g><path fill="#ac6234" d="M205 0l-28-72H64L36 0H1l101-248h38L239 0h-34zm-38-99l-47-123c-12 45-31 82-46 123h93" id="at"/><path fill="#ac6234" d="M84 4C-5 8 30-112 23-190h32v120c0 31 7 50 39 49 72-2 45-101 50-169h31l1 190h-30c-1-10 1-25-2-33-11 22-28 36-60 37" id="au"/><g id="p"><use transform="matrix(0.050910016545755374,0,0,0.050910016545755374,0,0)" xlink:href="#at"/><use transform="matrix(0.050910016545755374,0,0,0.050910016545755374,12.21840397098129,0)" xlink:href="#au"/><use transform="matrix(0.050910016545755374,0,0,0.050910016545755374,22.400407280132363,0)" xlink:href="#aj"/><use transform="matrix(0.050910016545755374,0,0,0.050910016545755374,27.491408934707895,0)" xlink:href="#ac"/><use transform="matrix(0.050910016545755374,0,0,0.050910016545755374,37.67341224385898,0)" xlink:href="#ai"/><use transform="matrix(0.050910016545755374,0,0,0.050910016545755374,52.89550719103983,0)" xlink:href="#ah"/><use transform="matrix(0.050910016545755374,0,0,0.050910016545755374,63.07751050019091,0)" xlink:href="#aj"/><use transform="matrix(0.050910016545755374,0,0,0.050910016545755374,68.16851215476645,0)" xlink:href="#ad"/><use transform="matrix(0.050910016545755374,0,0,0.050910016545755374,72.19040346188112,0)" xlink:href="#ac"/><use transform="matrix(0.050910016545755374,0,0,0.050910016545755374,82.37240677103219,0)" xlink:href="#am"/></g><g id="q"><use transform="matrix(0.050910016545755374,0,0,0.050910016545755374,0,0)" xlink:href="#as"/><use transform="matrix(0.050910016545755374,0,0,0.050910016545755374,13.185694285350642,0)" xlink:href="#Z"/><use transform="matrix(0.050910016545755374,0,0,0.050910016545755374,22.34949726358661,0)" xlink:href="#W"/></g><path fill="#ac6234" d="M145-31C134-9 116 4 85 4 32 4 16-35 15-94c0-59 17-99 70-100 32-1 48 14 60 33 0-11-1-24 2-32h30l-1 268h-32zM93-21c41 0 51-33 51-76s-8-73-50-73c-40 0-46 35-46 75s5 74 45 74" id="av"/><g id="r"><use transform="matrix(0.050910016545755374,0,0,0.050910016545755374,0,0)" xlink:href="#al"/><use transform="matrix(0.050910016545755374,0,0,0.050910016545755374,12.21840397098129,0)" xlink:href="#W"/><use transform="matrix(0.050910016545755374,0,0,0.050910016545755374,22.400407280132363,0)" xlink:href="#av"/><use transform="matrix(0.050910016545755374,0,0,0.050910016545755374,32.58241058928344,0)" xlink:href="#au"/><use transform="matrix(0.050910016545755374,0,0,0.050910016545755374,42.76441389843451,0)" xlink:href="#W"/><use transform="matrix(0.050910016545755374,0,0,0.050910016545755374,52.946417207585576,0)" xlink:href="#am"/><use transform="matrix(0.050910016545755374,0,0,0.050910016545755374,63.128420516736654,0)" xlink:href="#X"/><use transform="matrix(0.050910016545755374,0,0,0.050910016545755374,72.29222349497262,0)" xlink:href="#W"/><use transform="matrix(0.050910016545755374,0,0,0.050910016545755374,82.47422680412369,0)" xlink:href="#V"/></g><g id="s"><use transform="matrix(0.03818251240931655,0,0,0.03818251240931655,0,0)" xlink:href="#T"/><use transform="matrix(0.03818251240931655,0,0,0.03818251240931655,8.018327605956475,0)" xlink:href="#T"/><use transform="matrix(0.038182512409316534,0,0,0.038182512409316534,16.03665521191295,0)" xlink:href="#ad"/><use transform="matrix(0.038182512409316534,0,0,0.038182512409316534,19.053073692248958,0)" xlink:href="#am"/><use transform="matrix(0.038182512409316534,0,0,0.038182512409316534,26.689576174112265,0)" xlink:href="#X"/><use transform="matrix(0.038182512409316534,0,0,0.038182512409316534,33.56242840778924,0)" xlink:href="#ak"/><use transform="matrix(0.038182512409316534,0,0,0.038182512409316534,36.57884688812525,0)" xlink:href="#au"/><use transform="matrix(0.038182512409316534,0,0,0.038182512409316534,44.21534936998855,0)" xlink:href="#Y"/><use transform="matrix(0.038182512409316534,0,0,0.038182512409316534,51.85185185185186,0)" xlink:href="#W"/><use transform="matrix(0.038182512409316534,0,0,0.038182512409316534,59.488354333715165,0)" xlink:href="#Z"/><use transform="matrix(0.03818251240931655,0,0,0.03818251240931655,66.36120656739214,0)" xlink:href="#aa"/><use transform="matrix(0.03818251240931655,0,0,0.03818251240931655,74.37953417334862,0)" xlink:href="#aa"/></g><g id="t"><use transform="matrix(0.050910016545755374,0,0,0.050910016545755374,0,0)" xlink:href="#ag"/><use transform="matrix(0.050910016545755374,0,0,0.050910016545755374,12.21840397098129,0)" xlink:href="#V"/><use transform="matrix(0.050910016545755374,0,0,0.050910016545755374,18.276695939926178,0)" xlink:href="#ac"/><use transform="matrix(0.050910016545755374,0,0,0.050910016545755374,28.458699249077252,0)" xlink:href="#X"/><use transform="matrix(0.050910016545755374,0,0,0.050910016545755374,37.62250222731322,0)" xlink:href="#W"/><use transform="matrix(0.050910016545755374,0,0,0.050910016545755374,47.80450553646429,0)" xlink:href="#Z"/><use transform="matrix(0.050910016545755374,0,0,0.050910016545755374,56.968308514700254,0)" xlink:href="#Z"/></g><g id="u"><use transform="matrix(0.050910016545755374,0,0,0.050910016545755374,0,0)" xlink:href="#ag"/><use transform="matrix(0.050910016545755374,0,0,0.050910016545755374,12.21840397098129,0)" xlink:href="#V"/><use transform="matrix(0.050910016545755374,0,0,0.050910016545755374,18.276695939926178,0)" xlink:href="#ac"/><use transform="matrix(0.050910016545755374,0,0,0.050910016545755374,28.458699249077252,0)" xlink:href="#X"/><use transform="matrix(0.050910016545755374,0,0,0.050910016545755374,37.62250222731322,0)" xlink:href="#W"/><use transform="matrix(0.050910016545755374,0,0,0.050910016545755374,47.80450553646429,0)" xlink:href="#Z"/><use transform="matrix(0.050910016545755374,0,0,0.050910016545755374,56.968308514700254,0)" xlink:href="#Z"/></g><g id="v"><use transform="matrix(0.038182512409316534,0,0,0.038182512409316534,0,0)" xlink:href="#T"/><use transform="matrix(0.038182512409316534,0,0,0.038182512409316534,8.018327605956472,0)" xlink:href="#T"/><use transform="matrix(0.038182512409316534,0,0,0.038182512409316534,16.036655211912944,0)" xlink:href="#ad"/><use transform="matrix(0.038182512409316534,0,0,0.038182512409316534,19.05307369224895,0)" xlink:href="#am"/><use transform="matrix(0.038182512409316534,0,0,0.038182512409316534,26.689576174112258,0)" xlink:href="#X"/><use transform="matrix(0.038182512409316534,0,0,0.038182512409316534,33.562428407789234,0)" xlink:href="#ak"/><use transform="matrix(0.038182512409316534,0,0,0.038182512409316534,36.57884688812524,0)" xlink:href="#au"/><use transform="matrix(0.038182512409316534,0,0,0.038182512409316534,44.215349369988544,0)" xlink:href="#Y"/><use transform="matrix(0.038182512409316534,0,0,0.038182512409316534,51.85185185185185,0)" xlink:href="#W"/><use transform="matrix(0.038182512409316534,0,0,0.038182512409316534,59.48835433371515,0)" xlink:href="#Z"/><use transform="matrix(0.038182512409316534,0,0,0.038182512409316534,66.36120656739213,0)" xlink:href="#aa"/><use transform="matrix(0.038182512409316534,0,0,0.038182512409316534,74.3795341733486,0)" xlink:href="#aa"/></g><path fill="#ac6234" d="M30 0v-248h33v221h125V0H30" id="aw"/><g id="w"><use transform="matrix(0.050910016545755374,0,0,0.050910016545755374,0,0)" xlink:href="#aw"/><use transform="matrix(0.050910016545755374,0,0,0.050910016545755374,10.182003309151074,0)" xlink:href="#ac"/><use transform="matrix(0.050910016545755374,0,0,0.050910016545755374,20.36400661830215,0)" xlink:href="#ah"/><use transform="matrix(0.050910016545755374,0,0,0.050910016545755374,30.546009927453223,0)" xlink:href="#Y"/></g><path fill="#ac6234" d="M30 0v-248h187v28H63v79h144v27H63v87h162V0H30" id="ax"/><g id="x"><use transform="matrix(0.050910016545755374,0,0,0.050910016545755374,0,0)" xlink:href="#ax"/><use transform="matrix(0.050910016545755374,0,0,0.050910016545755374,12.21840397098129,0)" xlink:href="#ae"/><use transform="matrix(0.050910016545755374,0,0,0.050910016545755374,16.95303550973654,0)" xlink:href="#ae"/><use transform="matrix(0.050910016545755374,0,0,0.050910016545755374,22.04403716431208,0)" xlink:href="#W"/><use transform="matrix(0.050910016545755374,0,0,0.050910016545755374,32.22604047346316,0)" xlink:href="#X"/><use transform="matrix(0.050910016545755374,0,0,0.050910016545755374,41.38984345169912,0)" xlink:href="#aj"/><use transform="matrix(0.050910016545755374,0,0,0.050910016545755374,46.48084510627466,0)" xlink:href="#Z"/></g><path fill="#ac6234" d="M212-179c-10-28-35-45-73-45-59 0-87 40-87 99 0 60 29 101 89 101 43 0 62-24 78-52l27 14C228-24 195 4 139 4 59 4 22-46 18-125c-6-104 99-153 187-111 19 9 31 26 39 46" id="ay"/><g id="y"><use transform="matrix(0.050910016545755374,0,0,0.050910016545755374,0,0)" xlink:href="#ay"/><use transform="matrix(0.050910016545755374,0,0,0.050910016545755374,13.185694285350642,0)" xlink:href="#ac"/><use transform="matrix(0.050910016545755374,0,0,0.050910016545755374,23.367697594501717,0)" xlink:href="#am"/><use transform="matrix(0.050910016545755374,0,0,0.050910016545755374,33.54970090365279,0)" xlink:href="#aj"/><use transform="matrix(0.050910016545755374,0,0,0.050910016545755374,38.64070255822833,0)" xlink:href="#V"/><use transform="matrix(0.050910016545755374,0,0,0.050910016545755374,44.69899452717321,0)" xlink:href="#ac"/><use transform="matrix(0.050910016545755374,0,0,0.050910016545755374,54.88099783632428,0)" xlink:href="#ak"/><use transform="matrix(0.050910016545755374,0,0,0.050910016545755374,58.902889143438955,0)" xlink:href="#ak"/><use transform="matrix(0.050910016545755374,0,0,0.050910016545755374,62.924780450553634,0)" xlink:href="#W"/><use transform="matrix(0.050910016545755374,0,0,0.050910016545755374,73.1067837597047,0)" xlink:href="#V"/><use transform="matrix(0.050910016545755374,0,0,0.050910016545755374,79.16507572864958,0)" xlink:href="#Z"/></g><path fill="#ac6234" d="M194 0L95-120 63-95V0H30v-248h33v124l119-124h40L117-140 236 0h-42" id="az"/><g id="z"><use transform="matrix(0.050910016545755374,0,0,0.050910016545755374,0,0)" xlink:href="#az"/><use transform="matrix(0.050910016545755374,0,0,0.050910016545755374,12.21840397098129,0)" xlink:href="#W"/><use transform="matrix(0.050910016545755374,0,0,0.050910016545755374,22.400407280132363,0)" xlink:href="#af"/><use transform="matrix(0.050910016545755374,0,0,0.050910016545755374,31.56421025836833,0)" xlink:href="#aq"/><use transform="matrix(0.050910016545755374,0,0,0.050910016545755374,41.746213567519405,0)" xlink:href="#ac"/><use transform="matrix(0.050910016545755374,0,0,0.050910016545755374,51.928216876670476,0)" xlink:href="#ah"/><use transform="matrix(0.050910016545755374,0,0,0.050910016545755374,62.11022018582155,0)" xlink:href="#V"/><use transform="matrix(0.050910016545755374,0,0,0.050910016545755374,68.16851215476643,0)" xlink:href="#Y"/></g><path fill="#ac6234" d="M108 0H70L1-190h34L89-25l56-165h34" id="aA"/><g id="A"><use transform="matrix(0.050910016545755374,0,0,0.050910016545755374,0,0)" xlink:href="#al"/><use transform="matrix(0.050910016545755374,0,0,0.050910016545755374,12.21840397098129,0)" xlink:href="#ah"/><use transform="matrix(0.050910016545755374,0,0,0.050910016545755374,22.400407280132363,0)" xlink:href="#aA"/><use transform="matrix(0.050910016545755374,0,0,0.050910016545755374,31.56421025836833,0)" xlink:href="#W"/></g><g id="B"><use transform="matrix(0.050910016545755374,0,0,0.050910016545755374,0,0)" xlink:href="#al"/><use transform="matrix(0.050910016545755374,0,0,0.050910016545755374,12.21840397098129,0)" xlink:href="#aj"/><use transform="matrix(0.050910016545755374,0,0,0.050910016545755374,17.309405625556828,0)" xlink:href="#ah"/><use transform="matrix(0.050910016545755374,0,0,0.050910016545755374,27.491408934707902,0)" xlink:href="#aj"/><use transform="matrix(0.050910016545755374,0,0,0.050910016545755374,32.58241058928344,0)" xlink:href="#W"/></g></defs></g></svg>